<?xml version="1.0" encoding="utf-8"?>
<!-- Generator: Adobe Illustrator 24.0.1, SVG Export Plug-In . SVG Version: 6.00 Build 0)  -->
<svg version="1.1" id="Layer_1" xmlns="http://www.w3.org/2000/svg" xmlns:xlink="http://www.w3.org/1999/xlink" x="0px" y="0px"
	 viewBox="0 0 1000 1000" style="enable-background:new 0 0 1000 1000;" xml:space="preserve">
<style type="text/css">
	.st0{fill:#6383F0;}
	.st1{display:none;fill:#6383F0;}
</style>
<g id="XMLID_58_">
	<path id="XMLID_855_" class="st0" d="M742.38,681.02c-20.06-20.26-40.27-40.37-60.53-60.43l-48.2-48.94l-34.66,34.03
		c-1.87,1.63-3.73,3.07-5.63,4.96c-13.72,13.58-27.56,27.05-40.77,41.12c-7.06,7.52-13.59,9.02-22.35,3.14
		c-25.19-16.91-52.41-31.32-75.55-50.63c-46.98-39.22-88.04-84.06-115.05-140.11c-3.98-8.24-3.11-14.22,3.44-20.52
		c14.83-14.27,29.5-28.75,43.79-43.57l34.88-38.07l-29.44-29.89c-1.69-2.07-3.3-4.14-5.33-6.23c-19.82-20.47-40.07-40.52-60.38-60.5
		l-49.87-50.65l-37.82,36.51c-14.53,13.98-28.17,28.9-43.02,42.52c-21.04,19.31-30.26,43.04-29.59,71.17
		c0.29,30.89,8.24,60.21,19.81,88.48c59.14,144.48,159.24,252.35,295.02,327.87c41.79,23.24,85.44,41.59,133.58,47.22
		c34.38,4.01,64.53-3.24,88.64-29.93c12.36-13.68,25.9-26.27,38.89-39.36c0.62-0.62,1.03-1.22,1.62-1.84l0.24-0.04l34.88-38.07
		l-28.61-29.05C748.02,687.14,745.42,684.1,742.38,681.02z"/>
	<path id="XMLID_854_" class="st0" d="M775.11,488.15c17.74-3.13,33.96-5.99,50.17-8.85c-32.49-181.82-183.11-293.75-318.89-307.8
		c-2.22,15.97-4.45,31.99-6.91,49.63c70.92,10.91,131.15,40.34,181.51,89.23C731.25,359.16,761.96,418.7,775.11,488.15z"/>
	<path id="XMLID_852_" class="st0" d="M642.61,496.69c16.05-2.78,32.24-5.59,48.37-8.38c-11.56-92.6-100.17-178.38-191.24-185.18
		c-2.28,15.84-4.57,31.78-6.97,48.44C586.39,380.69,609.03,402.67,642.61,496.69z"/>
</g>
<rect x="629" y="-153" class="st1" width="1920" height="1080"/>
</svg>
