<svg id="visual" viewBox="0 0 950 300" width="950" height="300" xmlns="http://www.w3.org/2000/svg" xmlns:xlink="http://www.w3.org/1999/xlink" version="1.1"><path d="M0 106L14.3 106.5C28.7 107 57.3 108 86.2 104.5C115 101 144 93 172.8 88C201.7 83 230.3 81 259 87.5C287.7 94 316.3 109 345.2 104C374 99 403 74 431.8 73C460.7 72 489.3 95 518.2 109.5C547 124 576 130 604.8 127C633.7 124 662.3 112 691 100C719.7 88 748.3 76 777.2 66C806 56 835 48 863.8 47C892.7 46 921.3 52 935.7 55L950 58L950 0L935.7 0C921.3 0 892.7 0 863.8 0C835 0 806 0 777.2 0C748.3 0 719.7 0 691 0C662.3 0 633.7 0 604.8 0C576 0 547 0 518.2 0C489.3 0 460.7 0 431.8 0C403 0 374 0 345.2 0C316.3 0 287.7 0 259 0C230.3 0 201.7 0 172.8 0C144 0 115 0 86.2 0C57.3 0 28.7 0 14.3 0L0 0Z" fill="#d695f5"></path><path d="M0 151L14.3 148.5C28.7 146 57.3 141 86.2 136C115 131 144 126 172.8 129.5C201.7 133 230.3 145 259 154C287.7 163 316.3 169 345.2 160.5C374 152 403 129 431.8 127C460.7 125 489.3 144 518.2 154C547 164 576 165 604.8 161.5C633.7 158 662.3 150 691 145C719.7 140 748.3 138 777.2 130.5C806 123 835 110 863.8 104C892.7 98 921.3 99 935.7 99.5L950 100L950 56L935.7 53C921.3 50 892.7 44 863.8 45C835 46 806 54 777.2 64C748.3 74 719.7 86 691 98C662.3 110 633.7 122 604.8 125C576 128 547 122 518.2 107.5C489.3 93 460.7 70 431.8 71C403 72 374 97 345.2 102C316.3 107 287.7 92 259 85.5C230.3 79 201.7 81 172.8 86C144 91 115 99 86.2 102.5C57.3 106 28.7 105 14.3 104.5L0 104Z" fill="#b473d2"></path><path d="M0 217L14.3 215.5C28.7 214 57.3 211 86.2 213.5C115 216 144 224 172.8 228C201.7 232 230.3 232 259 231.5C287.7 231 316.3 230 345.2 229.5C374 229 403 229 431.8 226.5C460.7 224 489.3 219 518.2 220.5C547 222 576 230 604.8 234C633.7 238 662.3 238 691 232C719.7 226 748.3 214 777.2 206.5C806 199 835 196 863.8 195.5C892.7 195 921.3 197 935.7 198L950 199L950 98L935.7 97.5C921.3 97 892.7 96 863.8 102C835 108 806 121 777.2 128.5C748.3 136 719.7 138 691 143C662.3 148 633.7 156 604.8 159.5C576 163 547 162 518.2 152C489.3 142 460.7 123 431.8 125C403 127 374 150 345.2 158.5C316.3 167 287.7 161 259 152C230.3 143 201.7 131 172.8 127.5C144 124 115 129 86.2 134C57.3 139 28.7 144 14.3 146.5L0 149Z" fill="#9251b0"></path><path d="M0 238L14.3 241.5C28.7 245 57.3 252 86.2 256C115 260 144 261 172.8 264.5C201.7 268 230.3 274 259 277C287.7 280 316.3 280 345.2 279C374 278 403 276 431.8 272.5C460.7 269 489.3 264 518.2 263.5C547 263 576 267 604.8 270.5C633.7 274 662.3 277 691 272C719.7 267 748.3 254 777.2 248C806 242 835 243 863.8 243C892.7 243 921.3 242 935.7 241.5L950 241L950 197L935.7 196C921.3 195 892.7 193 863.8 193.5C835 194 806 197 777.2 204.5C748.3 212 719.7 224 691 230C662.3 236 633.7 236 604.8 232C576 228 547 220 518.2 218.5C489.3 217 460.7 222 431.8 224.5C403 227 374 227 345.2 227.5C316.3 228 287.7 229 259 229.5C230.3 230 201.7 230 172.8 226C144 222 115 214 86.2 211.5C57.3 209 28.7 212 14.3 213.5L0 215Z" fill="#72308f"></path><path d="M0 301L14.3 301C28.7 301 57.3 301 86.2 301C115 301 144 301 172.8 301C201.7 301 230.3 301 259 301C287.7 301 316.3 301 345.2 301C374 301 403 301 431.8 301C460.7 301 489.3 301 518.2 301C547 301 576 301 604.8 301C633.7 301 662.3 301 691 301C719.7 301 748.3 301 777.2 301C806 301 835 301 863.8 301C892.7 301 921.3 301 935.7 301L950 301L950 239L935.7 239.5C921.3 240 892.7 241 863.8 241C835 241 806 240 777.2 246C748.3 252 719.7 265 691 270C662.3 275 633.7 272 604.8 268.5C576 265 547 261 518.2 261.5C489.3 262 460.7 267 431.8 270.5C403 274 374 276 345.2 277C316.3 278 287.7 278 259 275C230.3 272 201.7 266 172.8 262.5C144 259 115 258 86.2 254C57.3 250 28.7 243 14.3 239.5L0 236Z" fill="#520a70"></path></svg>