<svg id="visual" viewBox="0 0 950 300" width="950" height="300" xmlns="http://www.w3.org/2000/svg" xmlns:xlink="http://www.w3.org/1999/xlink" version="1.1"><path d="M0 28L63 28L127 49L190 22L253 43L317 46L380 37L443 40L507 25L570 37L633 49L697 52L760 55L823 34L887 43L950 49L950 0L887 0L823 0L760 0L697 0L633 0L570 0L507 0L443 0L380 0L317 0L253 0L190 0L127 0L63 0L0 0Z" fill="#10b981"></path><path d="M0 52L63 64L127 88L190 67L253 82L317 76L380 58L443 61L507 58L570 70L633 79L697 82L760 76L823 55L887 88L950 91L950 47L887 41L823 32L760 53L697 50L633 47L570 35L507 23L443 38L380 35L317 44L253 41L190 20L127 47L63 26L0 26Z" fill="#00b3a3"></path><path d="M0 127L63 124L127 169L190 181L253 136L317 166L380 115L443 184L507 133L570 151L633 157L697 145L760 136L823 166L887 160L950 166L950 89L887 86L823 53L760 74L697 80L633 77L570 68L507 56L443 59L380 56L317 74L253 80L190 65L127 86L63 62L0 50Z" fill="#00aab8"></path><path d="M0 154L63 145L127 202L190 199L253 172L317 199L380 148L443 202L507 166L570 190L633 175L697 169L760 160L823 205L887 184L950 196L950 164L887 158L823 164L760 134L697 143L633 155L570 149L507 131L443 182L380 113L317 164L253 134L190 179L127 167L63 122L0 125Z" fill="#009ec1"></path><path d="M0 268L63 235L127 253L190 259L253 268L317 247L380 241L443 262L507 265L570 259L633 250L697 259L760 271L823 262L887 265L950 268L950 194L887 182L823 203L760 158L697 167L633 173L570 188L507 164L443 200L380 146L317 197L253 170L190 197L127 200L63 143L0 152Z" fill="#0092c6"></path><path d="M0 301L63 301L127 301L190 301L253 301L317 301L380 301L443 301L507 301L570 301L633 301L697 301L760 301L823 301L887 301L950 301L950 266L887 263L823 260L760 269L697 257L633 248L570 257L507 263L443 260L380 239L317 245L253 266L190 257L127 251L63 233L0 266Z" fill="#0284c7"></path></svg>