<svg id="visual" viewBox="0 0 900 250" width="900" height="50" xmlns="http://www.w3.org/2000/svg" xmlns:xlink="http://www.w3.org/1999/xlink" version="1.1"><rect x="0" y="0" width="900" height="250" fill="#520a70"></rect><path d="M0 142L16.7 143C33.3 144 66.7 146 100 136.8C133.3 127.7 166.7 107.3 200 111C233.3 114.7 266.7 142.3 300 142.7C333.3 143 366.7 116 400 106.7C433.3 97.3 466.7 105.7 500 103.5C533.3 101.3 566.7 88.7 600 83.8C633.3 79 666.7 82 700 89.5C733.3 97 766.7 109 800 112.2C833.3 115.3 866.7 109.7 883.3 106.8L900 104L900 251L883.3 251C866.7 251 833.3 251 800 251C766.7 251 733.3 251 700 251C666.7 251 633.3 251 600 251C566.7 251 533.3 251 500 251C466.7 251 433.3 251 400 251C366.7 251 333.3 251 300 251C266.7 251 233.3 251 200 251C166.7 251 133.3 251 100 251C66.7 251 33.3 251 16.7 251L0 251Z" fill="#6383f0" stroke-linecap="round" stroke-linejoin="miter"></path></svg>