<?xml version="1.0" encoding="utf-8"?>
<svg version="1.1" id="Layer_1" xmlns="http://www.w3.org/2000/svg" x="0px" y="0px" viewBox="0 0 1080 1080" style="enable-background:new 0 0 1080 1080;">
  <style type="text/css">
	.st0{fill:#FFFFFF;}
	.st1{fill:#C5FC7A;}
</style>
  <g style="" transform="matrix(3.156839, 0, 0, 3.156839, -1165.008789, -1166.536621)">
    <path class="st0" d="M681.4,576.1c-5.5-10.8-13.6-19.6-24.3-26.3c-10.1-6.3-22.3-11-36.8-14.1v-2c10.6-3.1,19.8-7.3,27.5-12.5 c19.5-13.1,29.3-33.8,29.3-62.1c0-28.4-9.6-49.9-28.8-64.5c-19.2-14.6-45.5-21.9-78.9-21.9h-32.6h-10.2h-137v49.1h45.3v237.2h-45.3 V708h132.6h14.7h47.3c32.9,0,58.7-8.1,77.4-24.2c18.7-16.1,28.1-38.8,28.1-67.9C689.6,600.1,686.9,586.9,681.4,576.1z M613.1,646.3 c-11.9,8.4-27.6,12.5-47.2,12.5h-29.1h-14.7h-31.3v-97h72.8c12.1,0,22.5,1.2,31,3.6c8.5,2.4,15.4,5.7,20.8,10.1 c5.3,4.4,9.3,9.5,11.8,15.3c2.5,5.8,3.8,12.2,3.8,19C631,625.8,625,638,613.1,646.3z"/>
    <path class="st1" d="M550.8,562L550.8,562c0-66.7-56.5-94.7-115.6-94.7c0,0,115.6,5.5,115.6-94.7h0c0,105.4,126.1,94.7,126.1,94.7 C612.2,472.9,550.8,509.7,550.8,562z"/>
  </g>
</svg>