<?xml version="1.0" encoding="UTF-8"?>
<svg id="Layer_1" xmlns="http://www.w3.org/2000/svg" viewBox="0 0 300 335.32">
  <defs>
    <style>
      .cls-1 {
        fill: #09060a;
      }

      .cls-2 {
        fill: #f1f2f2;
      }
    </style>
  </defs>
  <path class="cls-1" d="M291.79,203.41c-5.48-10.8-13.58-19.58-24.31-26.31-10.1-6.33-22.34-11.03-36.75-14.1v-2.03c10.59-3.13,19.78-7.31,27.52-12.51,17.59-11.78,27.27-29.7,29.03-53.75.19-2.7.29-5.46.29-8.32,0-28.42-9.58-49.93-28.76-64.5C239.64,7.29,213.32,0,179.88,0h-18.73c0,43.81,21.82,67.55,47.29,80.35,33.87,17,74.21,14.68,78.46,14.37-64.44,5.64-125.6,42.38-125.75,94.47h12.96c12.13,0,22.46,1.19,30.96,3.56,8.51,2.37,15.43,5.73,20.77,10.11,5.34,4.36,9.25,9.47,11.76,15.32,2.53,5.85,3.79,12.18,3.79,18.99,0,15.99-5.96,28.16-17.89,36.53-11.9,8.37-27.64,12.54-47.18,12.54h-75.07v-97.04h59.9c-.12-64.96-53.93-93.16-111.47-94.44,20.7-.17,111.47-5.92,111.47-94.75H0v49.08h45.31v237.15H0v49.08h194.53c32.87,0,58.65-8.06,77.39-24.21,18.73-16.13,28.09-38.77,28.09-67.96,0-15.67-2.74-28.93-8.21-39.74Z"/>
  <path class="cls-2" d="M300,243.15c0,29.19-9.35,51.82-28.09,67.96-18.73,16.15-44.51,24.21-77.39,24.21H0v-49.08h45.31V49.08H0V0h161.14c0,88.83-90.77,94.58-111.47,94.75,57.54,1.28,111.36,29.48,111.47,94.44h-59.9v97.04h75.07c19.54,0,35.28-4.17,47.18-12.54,11.93-8.37,17.89-20.54,17.89-36.53,0-6.81-1.25-13.14-3.79-18.99-2.51-5.85-6.42-10.95-11.76-15.32-5.34-4.38-12.26-7.74-20.77-10.11-8.51-2.37-18.83-3.56-30.96-3.56h-12.96c.15-52.09,61.32-88.83,125.75-94.47-4.25.31-44.59,2.64-78.46-14.37-25.48-12.81-47.29-36.54-47.29-80.35h18.73c33.45,0,59.77,7.29,78.93,21.88,19.18,14.57,28.76,36.08,28.76,64.5,0,2.85-.1,5.62-.29,8.32-1.77,24.06-11.44,41.97-29.03,53.75-7.74,5.21-16.93,9.38-27.52,12.51v2.03c14.41,3.07,26.65,7.77,36.75,14.1,10.74,6.73,18.83,15.51,24.31,26.31,5.48,10.81,8.21,24.07,8.21,39.74Z"/>
</svg>