<?xml version="1.0" encoding="UTF-8"?>
<svg id="Layer_1" xmlns="http://www.w3.org/2000/svg" viewBox="0 0 400 416.11">
  <defs>
    <style>
      .cls-1 {
        fill: #f1f2f2;
      }
    </style>
  </defs>
  <path class="cls-1" d="M74.67,47.86l-3.34-5.48,19.75-12.06,3.34,5.48-6.86,4.19,21.56,35.32,6.86-4.19,3.34,5.48-19.75,12.06-3.34-5.48,6.86-4.19-21.56-35.32-6.86,4.19ZM93.01,36.67l-3.34-5.48,5.91-3.61c4.47-2.73,8.6-3.87,12.38-3.42s6.87,2.64,9.26,6.55c2.38,3.9,2.82,7.54,1.33,10.93-1.49,3.39-4.73,6.6-9.71,9.65l-12.18,7.44-1.77-2.89,12.31-7.51c2.11-1.29,3.58-2.68,4.42-4.18.83-1.49,1.18-3,1.04-4.52-.14-1.52-.63-2.97-1.47-4.34-1.45-2.38-3.37-3.64-5.76-3.79-2.39-.15-4.95.62-7.7,2.29l-4.71,2.87ZM114.01,72.33l6-3.66c3.06-1.87,5.11-4.01,6.16-6.44,1.05-2.43.81-4.91-.73-7.43-.66-1.09-1.47-1.96-2.43-2.63-.96-.67-2.06-1.08-3.32-1.25-1.25-.16-2.66-.03-4.2.41-1.55.44-3.26,1.23-5.12,2.37l-12.24,7.47-2.31-3.78,12.24-7.47c2.71-1.65,5.24-2.91,7.6-3.77,2.36-.86,4.53-1.28,6.53-1.24,1.99.04,3.82.58,5.49,1.63,1.67,1.05,3.16,2.65,4.47,4.81,2.45,4.02,3.11,7.91,1.97,11.66-1.14,3.75-3.92,6.97-8.33,9.67l-8.43,5.15-3.34-5.48ZM112.44,46.98l2.95-1.8.9,1.48-2.95,1.8-.9-1.48Z"/>
  <path class="cls-1" d="M150.41,10.23l-.79-6.37,22.96-2.85.79,6.37-7.98.99,5.1,41.06,7.98-.99.79,6.37-22.96,2.85-.79-6.37,7.98-.99-5.1-41.06-7.98.99ZM169.41,7.87l-.79-6.37,9.66-1.2c6.15-.76,10.93-.09,14.34,2.01,3.41,2.11,5.39,5.39,5.95,9.85.28,2.22.12,4.31-.46,6.27-.58,1.96-1.58,3.69-2.99,5.18-1.41,1.5-3.23,2.67-5.45,3.53l.15,1.18-8.67,1.84-13.81,1.72-.76-6.15,14.31-1.78c2.53-.31,4.63-.92,6.29-1.82,1.67-.9,2.86-2.06,3.58-3.48.72-1.42.96-3.12.71-5.1-.36-2.89-1.68-4.86-3.95-5.92-2.28-1.06-5.18-1.37-8.71-.93l-9.41,1.17ZM183.9,25.39c1.49.08,2.99.48,4.51,1.18,1.52.71,2.63,1.77,3.34,3.18l8.24,16.01,5.69-.71.79,6.37-10.84,1.35-9.03-18.27c-.87-1.76-1.81-2.94-2.8-3.56-1-.61-2.39-.81-4.18-.59l-2.75.34,7.04-5.31Z"/>
  <path class="cls-1" d="M272.48,61.63l4.6,1.47-1.96,6.11-21.97-7.03,1.96-6.11,10.33,3.31-3.29-45.29,3.19,4.09-6.45-2.07,4.97-1.47-28.98,34.96,10.33,3.31-1.96,6.11-21.63-6.92,1.96-6.11,4.6,1.47,32.94-39.64,7.55,2.42,3.79,51.4ZM269.24,43.26l-1.87,5.84-27.53-8.82,1.87-5.83,27.53,8.81Z"/>
  <path class="cls-1" d="M320.44,41.61l4.47-4.61,13.04,12.64-5.39,5.46-2.51-2.43-27.92,28.81,5.8,5.62-4.46,4.61-16.28-15.78,4.46-4.61,5.77,5.59,28.8-29.71-5.77-5.59ZM319.04,106.81l13.09-62.81,5.85,5.67-13.06,62.83-5.87-5.69ZM348.18,68.5l4.46-4.61,16.31,15.8-4.47,4.61-5.77-5.59-33.26,34.32-6.39-6.2,4.91-8.69,3.49,3.39,26.54-27.38-5.82-5.64Z"/>
  <path class="cls-1" d="M338.14,130.68l6.06-2.12,2.65,7.59,39.06-13.66-2.65-7.59,6.06-2.12,8.07,23.07-6.06,2.12-3.08-8.81-39.06,13.66,3.08,8.81-6.06,2.12-8.07-23.07ZM345.47,151.64l6.06-2.12,1.42,4.05c1.35,3.86,3.37,6.96,6.06,9.32,2.69,2.35,5.81,3.84,9.34,4.45,3.54.61,7.23.24,11.09-1.11,3.83-1.34,6.92-3.34,9.26-6.01,2.34-2.66,3.81-5.75,4.42-9.26.61-3.51.23-7.19-1.11-11.05l-1.42-4.05,6.06-2.12,1.42,4.05c1.84,5.26,2.37,10.27,1.6,15.02-.77,4.75-2.68,8.91-5.72,12.48-3.04,3.57-7.06,6.23-12.05,7.97-5.06,1.77-9.91,2.21-14.56,1.33-4.65-.88-8.76-2.94-12.33-6.17s-6.28-7.48-8.12-12.74l-1.42-4.05Z"/>
  <path class="cls-1" d="M295.06,339.44l-5.8,3.97c-2.95,2.02-4.9,4.27-5.82,6.75-.92,2.48-.55,4.94,1.12,7.38.72,1.05,1.57,1.89,2.56,2.5.99.62,2.12.98,3.38,1.07,1.26.1,2.65-.11,4.18-.63s3.19-1.39,4.99-2.63l11.84-8.1,2.5,3.66-11.84,8.1c-2.62,1.79-5.08,3.18-7.39,4.16-2.31.98-4.46,1.51-6.45,1.58-1.99.07-3.85-.38-5.57-1.34-1.72-.96-3.29-2.49-4.72-4.57-2.66-3.89-3.51-7.73-2.56-11.54.95-3.81,3.55-7.17,7.82-10.08l8.15-5.57,3.62,5.3ZM335.61,361.84l3.62,5.3-19.1,13.06-3.62-5.3,6.63-4.54-23.36-34.16-6.63,4.54-3.62-5.3,19.1-13.06,3.62,5.3-6.63,4.54,23.36,34.16,6.63-4.54ZM317.88,373.96l3.62,5.3-5.71,3.91c-4.32,2.96-8.39,4.31-12.18,4.05-3.8-.26-6.99-2.28-9.58-6.07-2.58-3.77-3.21-7.38-1.89-10.84,1.32-3.46,4.38-6.84,9.2-10.14l11.78-8.06,1.91,2.8-11.9,8.14c-2.04,1.4-3.44,2.86-4.2,4.4s-1.02,3.06-.81,4.57c.22,1.51.78,2.93,1.69,4.26,1.57,2.3,3.56,3.46,5.94,3.49,2.39.02,4.91-.87,7.57-2.69l4.55-3.11ZM297.95,364.67l-2.86,1.95-.98-1.43,2.86-1.95.98,1.43Z"/>
  <path class="cls-1" d="M225.19,360.42c4.11-.65,7.96-.56,11.57.26,3.61.82,6.84,2.27,9.69,4.35,2.86,2.08,5.22,4.71,7.08,7.9,1.86,3.19,3.11,6.82,3.76,10.9.63,4.04.54,7.84-.27,11.41-.81,3.57-2.26,6.77-4.33,9.6-2.07,2.83-4.7,5.18-7.89,7.06-3.18,1.87-6.82,3.13-10.9,3.77-4.11.65-7.96.56-11.57-.24-3.6-.81-6.83-2.24-9.67-4.3-2.84-2.06-5.2-4.66-7.08-7.81-1.88-3.15-3.14-6.74-3.77-10.77-.64-4.08-.56-7.93.25-11.53.81-3.61,2.25-6.84,4.33-9.69s4.71-5.23,7.88-7.11c3.17-1.88,6.81-3.15,10.92-3.79ZM226.3,367.25c-4.04.63-7.44,2.08-10.23,4.34-2.78,2.26-4.78,5.1-6,8.51-1.21,3.41-1.5,7.17-.86,11.28.64,4.08,2.06,7.55,4.26,10.39,2.2,2.84,4.96,4.89,8.3,6.14,3.33,1.25,7.01,1.56,11.02.93,4.04-.63,7.44-2.06,10.22-4.27,2.78-2.21,4.78-5.01,6.02-8.39,1.23-3.38,1.53-7.11.89-11.19-.64-4.11-2.07-7.6-4.29-10.47-2.21-2.88-4.99-4.96-8.32-6.26-3.33-1.3-7-1.64-11.01-1.01Z"/>
  <path class="cls-1" d="M153.92,354.94c3.96,1.27,7.36,3.08,10.22,5.44,2.85,2.35,5.09,5.1,6.7,8.25,1.62,3.14,2.54,6.56,2.77,10.24.23,3.68-.29,7.49-1.55,11.43-1.25,3.89-3.04,7.25-5.37,10.07-2.33,2.82-5.06,5.03-8.18,6.63-3.12,1.6-6.53,2.52-10.22,2.76-3.69.24-7.5-.27-11.43-1.53-3.96-1.27-7.36-3.08-10.22-5.42-2.86-2.34-5.09-5.07-6.7-8.19-1.61-3.12-2.55-6.5-2.81-10.16-.27-3.66.23-7.43,1.48-11.32,1.26-3.94,3.07-7.33,5.41-10.19,2.34-2.86,5.09-5.09,8.23-6.71,3.14-1.62,6.55-2.55,10.23-2.81,3.68-.26,7.5.25,11.46,1.52ZM151.84,361.54c-3.89-1.25-7.59-1.49-11.09-.72-3.5.77-6.56,2.4-9.18,4.91-2.62,2.5-4.57,5.73-5.84,9.69-1.26,3.93-1.55,7.67-.87,11.19.69,3.53,2.24,6.6,4.65,9.22,2.42,2.62,5.56,4.55,9.42,5.79,3.89,1.25,7.57,1.51,11.05.78,3.48-.73,6.53-2.32,9.15-4.79,2.62-2.46,4.56-5.67,5.83-9.6,1.27-3.96,1.56-7.72.88-11.28-.69-3.56-2.22-6.68-4.61-9.34-2.39-2.66-5.52-4.61-9.38-5.85Z"/>
  <path class="cls-1" d="M61.71,341.91l-11.08,12.14-5.22-4.76,11.08-12.14,5.22,4.76ZM94.24,319.48c3.57,3.26,5.73,6.59,6.5,10.01.77,3.42.13,6.67-1.9,9.76l1.17,1.07-4.77,3.3c1.82-2.96,2.34-6.12,1.56-9.48-.78-3.37-2.74-6.48-5.88-9.35-2.8-2.56-5.48-3.95-8.02-4.18-2.54-.22-4.79.73-6.73,2.86-1.33,1.45-2.09,2.98-2.28,4.58-.19,1.6.2,3.4,1.17,5.41.97,2.01,2.57,4.35,4.8,7.04,2.97,3.56,5.09,6.87,6.36,9.95,1.27,3.08,1.72,5.94,1.35,8.57-.37,2.64-1.56,5.06-3.57,7.26-3,3.28-6.46,4.83-10.38,4.63-3.92-.2-7.83-2.08-11.74-5.64-2.29-2.09-3.95-4.21-4.98-6.36-1.03-2.15-1.43-4.29-1.2-6.44.23-2.15,1.09-4.27,2.55-6.38l-1.17-1.07,4.66-3.12c-1.83,2.86-2.4,5.94-1.74,9.25.67,3.31,2.44,6.28,5.32,8.9,2.47,2.25,4.87,3.53,7.22,3.83,2.34.3,4.32-.43,5.92-2.18,1.12-1.22,1.72-2.61,1.8-4.16.08-1.55-.37-3.36-1.34-5.42-.98-2.06-2.5-4.46-4.56-7.19-3.08-3.82-5.26-7.24-6.53-10.25-1.27-3.01-1.67-5.79-1.21-8.33.46-2.54,1.77-4.99,3.93-7.35,3.31-3.62,7.05-5.39,11.23-5.32,4.18.07,8.34,2.01,12.5,5.8ZM111.5,336.23l-11.08,12.14-5.19-4.74,11.08-12.14,5.19,4.74Z"/>
  <path class="cls-1" d="M0,271.49l16.39-7.49,2.94,6.43-10.56,4.82,6.4,14,37.63-17.2-3.34-7.31,5.83-2.67,9.62,21.04-5.83,2.67-3.34-7.31-37.63,17.2,6.38,13.96,10.56-4.82,2.94,6.42-16.39,7.49L0,271.49Z"/>
</svg>