<?xml version="1.0" encoding="UTF-8"?>
<svg id="Layer_1" xmlns="http://www.w3.org/2000/svg" viewBox="0 0 300 335.31">
  <defs>
    <style>
      .cls-1 {
        fill: #c5fc7a;
      }

      .cls-2 {
        fill: #d796f5;
      }
    </style>
  </defs>
  <path class="cls-2" d="M291.78,203.4c-5.48-10.8-13.58-19.58-24.32-26.31-10.09-6.33-22.34-11.03-36.75-14.09v-2.05c10.59-3.14,19.77-7.3,27.54-12.51,19.54-13.1,29.31-33.79,29.31-62.07s-9.59-49.92-28.76-64.51C239.64,7.29,213.32,0,179.87,0H0v49.07h45.3v237.16H0v49.07h194.52c32.86,0,58.66-8.07,77.39-24.2,18.73-16.13,28.09-38.78,28.09-67.95,0-15.69-2.74-28.94-8.22-39.75ZM223.5,273.69c-11.92,8.37-27.65,12.55-47.19,12.55h-75.06v-97.04h72.84c12.14,0,22.46,1.19,30.98,3.55,8.51,2.37,15.43,5.74,20.76,10.1,5.33,4.37,9.25,9.48,11.77,15.32,2.52,5.85,3.77,12.18,3.77,18.99,0,15.99-5.96,28.17-17.88,36.53Z"/>
  <path class="cls-1" d="M161.14,189.4h0c0-66.68-56.49-94.7-115.62-94.7,0,0,115.62,5.54,115.62-94.7h0c0,105.36,126.13,94.7,126.13,94.7-64.67,5.54-126.13,42.4-126.13,94.7Z"/>
</svg>