<?xml version="1.0" encoding="UTF-8"?>
<svg id="Layer_1" xmlns="http://www.w3.org/2000/svg" viewBox="0 0 600 234.46">
  <defs>
    <style>
      .cls-1 {
        fill: #c5fc7a;
      }

      .cls-2 {
        fill: #09060a;
      }
    </style>
  </defs>
  <g>
    <path class="cls-2" d="M260.38,99.21h-11.79v-19.02c0-7.46,1.94-13.2,5.82-17.23,3.88-4.03,9.27-6.04,16.19-6.04,1.19,0,2.3.06,3.32.19,1.02.12,1.95.31,2.8.56v-22.83c-.65-.15-1.33-.26-2.05-.34-.72-.07-1.5-.11-2.35-.11-4.43,0-8.26.95-11.49,2.83-3.23,1.89-5.81,4.74-7.72,8.54-1.91,3.8-3.15,8.54-3.69,14.21h-2.54v-24.32h-33.78v18.65h12.83v44.9h-12.83v18.65h47.29v-18.65Z"/>
    <path class="cls-2" d="M484.65,99.21v-37.15c0-9.05-2.21-16-6.64-20.85-4.43-4.85-10.79-7.27-19.1-7.27-5.12,0-9.66.98-13.61,2.95-3.95,1.97-7.19,4.89-9.7,8.76-2.51,3.88-4.17,8.73-4.96,14.55h-2.54v-24.54h-33.78v18.65h12.83v44.9l-38.95-.07V33.64l-14.43,11.96c-.2-.2-6.1-6.05-13.8-8.86-7.79-2.85-24.64-5.46-39.05,2.42-14.57,7.97-20.14,22.63-20.14,37.45,0,5.97.25,11.54,1.97,16.71,3.32,10.02,10.34,18.3,19.7,22.9,4.55,2.24,9.66,3.36,15.33,3.36,8.93,0,16.96-3.02,22.08-11.38,2.24-3.66,3.85-8.12,4.85-13.39h2.54v11.79c0,3.68.91,6.48,2.72,8.39,1.81,1.91,4.31,2.87,7.5,2.87h82.88v-18.65h-10.52v-21.78c0-5.17.82-9.63,2.46-13.39,1.64-3.75,3.89-6.64,6.75-8.65,6.03-4.24,15.35-4.21,19.62,1.12,2.21,2.76,3.32,6.48,3.32,11.15v31.55h-10.52v18.65h45.05v-18.65h-11.86ZM343.47,88.88c-1.67,3.46-4.07,6.14-7.2,8.06-3.13,1.91-6.86,2.87-11.19,2.87s-7.91-.96-11.04-2.87c-3.13-1.91-5.57-4.6-7.31-8.06-1.74-3.46-2.61-7.47-2.61-12.05s.81-8.83,2.42-12.31c1.62-3.48,3.98-6.17,7.09-8.06,3.11-1.89,6.92-2.83,11.45-2.83s8.13.98,11.26,2.95c3.13,1.97,5.52,4.67,7.16,8.13,1.64,3.46,2.46,7.47,2.46,12.05s-.83,8.67-2.5,12.12Z"/>
    <path class="cls-2" d="M587.92,99.21V0h-38.86v18.65h16.19v27.26c-3.02-3.42-6.41-6.1-10.18-8.05-5.05-2.61-10.58-3.92-16.6-3.92-7.61,0-14.26,1.75-19.95,5.26-5.69,3.51-10.12,8.47-13.28,14.88-3.16,6.41-4.74,13.97-4.74,22.68,0,5.87.86,11.39,2.57,16.56,1.72,5.17,4.19,9.72,7.42,13.65,3.23,3.93,7.12,7.01,11.67,9.25,4.55,2.24,9.66,3.36,15.33,3.36,5.12,0,9.52-.98,13.2-2.95,3.68-1.96,6.64-4.77,8.88-8.43,2.24-3.66,3.85-8.12,4.85-13.39h2.54v23.05h33.04v-18.65h-12.08ZM563.19,88.77c-1.67,3.48-4.07,6.19-7.2,8.13s-6.86,2.91-11.19,2.91-7.91-.97-11.04-2.91c-3.13-1.94-5.57-4.64-7.31-8.09-1.74-3.46-2.61-7.47-2.61-12.05s.83-8.6,2.5-12.08c1.67-3.48,4.07-6.19,7.2-8.13s6.89-2.91,11.26-2.91,8.13.97,11.26,2.91c3.13,1.94,5.52,4.63,7.16,8.06,1.64,3.43,2.46,7.41,2.46,11.93s-.83,8.75-2.5,12.23Z"/>
    <path class="cls-2" d="M258.51,151.94c-39.19,0-43.49,32.16-43.49,41.41,0,36.41,33.13,40.98,43.49,40.98,37.64,0,43.42-29.74,43.42-40.98,0-9.57-4.46-41.41-43.42-41.41ZM258.51,215.02c-18.7,0-20.88-16.64-20.88-21.74,0-18.05,13.92-22.1,20.88-22.1,18.42,0,20.88,16.97,20.88,22.1,0,18.9-15.17,21.74-20.88,21.74Z"/>
    <path class="cls-2" d="M371.87,136.1c-10.3,0-51.9,4.51-51.9,48.88,0,13.45,7.15,49.42,51.9,49.42,10.31,0,51.82-4.52,51.82-49.42,0-11.25-5.73-48.88-51.82-48.88ZM371.87,213.17c-24.75,0-27.5-22.09-27.5-28.2,0-23.03,18.79-27.65,27.42-27.65,24.7,0,27.5,21.43,27.5,27.65,0,23.76-19.15,28.2-27.42,28.2Z"/>
    <path class="cls-2" d="M515,190.32c-5.42-4.38-14.25-7.33-26.48-8.88-6.32-.84-10.98-1.99-13.99-3.43-3.01-1.44-4.51-3.38-4.51-5.82,0-1.94.84-3.54,2.54-4.81,1.69-1.27,4.23-1.9,7.61-1.9,4.23,0,7.96,1,11.19,2.98,3.23,1.99,5.22,4.62,5.97,7.91h22.68v-26.18h-20.95v15.81h-2.54c-.5-3.68-1.58-6.81-3.24-9.4-1.67-2.58-4.02-4.54-7.05-5.85-3.03-1.32-6.79-1.98-11.26-1.98-8.75,0-15.57,2.14-20.44,6.41-4.87,4.28-7.31,9.95-7.31,17.01,0,7.51,2.9,13.63,8.69,18.35,5.79,4.72,15.08,7.88,27.86,9.47,6.27.7,10.6,1.75,13.02,3.17,2.41,1.42,3.62,3.42,3.62,6s-.95,4.46-2.83,5.78c-1.89,1.32-4.75,1.98-8.58,1.98-4.92,0-9.18-1.03-12.76-3.1-3.58-2.06-5.74-4.66-6.49-7.79h-22.68v26.56h20.95v-15.89h2.47c.6,3.68,1.88,6.81,3.84,9.4,1.96,2.59,4.65,4.56,8.06,5.93,3.41,1.37,7.55,2.05,12.42,2.05,9.35,0,16.41-2.25,21.18-6.75,4.77-4.5,7.16-10.68,7.16-18.54s-2.71-14.12-8.13-18.5Z"/>
    <path class="cls-2" d="M569.52,161.11v-2.91s10.88-6.43,10.88-24.1h-21.73c0,24.65-18.66,31.02-18.66,31.02v12.4h18.72v35.31c0,11.93,8.04,21.64,19.97,21.64h20.41v-19.88h-11.17c-4.15,0-7.49-3.33-7.49-7.49v-29.58h18.66v-19.9h-25.07l-4.52,3.5Z"/>
  </g>
  <path class="cls-2" d="M192.26,147.55c-3.61-7.12-8.95-12.9-16.02-17.34-6.65-4.17-14.72-7.27-24.22-9.28v-1.35c6.98-2.07,13.03-4.81,18.14-8.24,12.88-8.63,19.31-22.26,19.31-40.9s-6.32-32.9-18.95-42.5c-12.63-9.61-29.97-14.41-52.02-14.41H0v32.34h29.85v156.27H0v32.34h128.17c21.65,0,38.65-5.32,50.99-15.95,12.34-10.63,18.51-25.56,18.51-44.77,0-10.34-1.81-19.07-5.41-26.19ZM147.27,193.86c-7.85,5.51-18.22,8.27-31.09,8.27h-49.46v-63.94h47.99c8,0,14.8.78,20.41,2.34,5.61,1.56,10.17,3.78,13.68,6.66,3.51,2.88,6.1,6.24,7.75,10.1,1.66,3.85,2.49,8.02,2.49,12.51,0,10.53-3.93,18.56-11.78,24.07Z"/>
  <path class="cls-1" d="M106.18,138.32h0c0-43.93-37.22-62.4-76.18-62.4,0,0,76.18,3.65,76.18-62.4h0c0,69.42,83.11,62.4,83.11,62.4-42.61,3.65-83.11,27.94-83.11,62.4Z"/>
  <polygon class="cls-2" points="381.88 54.21 368.2 33.64 368.2 54.21 381.88 54.21"/>
  <polygon class="cls-2" points="394.19 54.21 406.53 35.66 406.53 54.21 394.19 54.21"/>
</svg>