<?xml version="1.0" encoding="UTF-8"?>
<svg id="Layer_1" xmlns="http://www.w3.org/2000/svg" viewBox="0 0 602.11 234.11">
  <defs>
    <style>
      .cls-1 {
        fill: #f1f2f2;
      }
    </style>
  </defs>
  <path class="cls-1" d="M260.38,99.21h-11.79v-19.02c0-7.46,1.94-13.2,5.82-17.23,3.88-4.03,9.27-6.04,16.19-6.04,1.19,0,2.3.06,3.32.19,1.02.12,1.95.31,2.8.56v-22.83c-.65-.15-1.33-.26-2.05-.34-.72-.07-1.5-.11-2.35-.11-4.43,0-8.26.95-11.49,2.83-3.23,1.89-5.81,4.74-7.72,8.54-1.92,3.8-3.15,8.54-3.69,14.21h-2.54v-24.32h-33.78v18.65h12.83v44.9h-12.83v18.65h47.29v-18.65Z"/>
  <path class="cls-1" d="M429.83,77.43c0-5.17.82-9.63,2.46-13.39,1.64-3.76,3.89-6.64,6.75-8.65,6.03-4.25,15.34-4.21,19.62,1.11,2.21,2.76,3.31,6.48,3.31,11.15v31.55h-10.52v18.65h45.06v-18.65h-11.86v-37.14c0-9.06-2.22-16.01-6.64-20.85-4.43-4.85-10.79-7.28-19.1-7.28-5.12,0-9.66.98-13.61,2.95-3.96,1.97-7.19,4.89-9.7,8.77-2.51,3.87-4.16,8.73-4.96,14.54h-2.55v-24.54h-33.78v18.35l-.14.21h.14v.09h12.82v44.9l-38.94-.07v-44.93h13.68l-13.68-20.57h0s0,0,0,0h0s0,0,0,0l-14.44,11.95c-.2-.2-6.1-6.04-13.8-8.86-7.79-2.85-24.64-5.46-39.06,2.42-14.57,7.97-20.13,22.63-20.13,37.45,0,5.97.25,11.54,1.96,16.7,3.32,10.02,10.35,18.3,19.7,22.9,4.55,2.24,9.66,3.36,15.34,3.36,8.93,0,16.96-3.01,22.08-11.38,2.24-3.65,3.85-8.11,4.84-13.39h2.55v11.78c0,3.68.91,6.48,2.72,8.39,1.81,1.92,4.32,2.87,7.5,2.87h82.88v-18.65h-10.52v-21.78ZM343.47,88.88c-1.67,3.46-4.06,6.15-7.2,8.06-3.14,1.91-6.86,2.87-11.19,2.87s-7.91-.96-11.04-2.87c-3.14-1.92-5.57-4.61-7.31-8.06-1.75-3.46-2.62-7.47-2.62-12.04s.81-8.83,2.43-12.31c1.61-3.47,3.98-6.17,7.08-8.05,3.11-1.89,6.93-2.83,11.45-2.83s8.13.98,11.27,2.95c3.13,1.96,5.51,4.67,7.16,8.13,1.64,3.46,2.46,7.47,2.46,12.05s-.84,8.66-2.5,12.12Z"/>
  <path class="cls-1" d="M587.92,99.21V0h-38.87v18.65h16.19v27.26c-3.02-3.42-6.41-6.1-10.18-8.05-5.05-2.61-10.59-3.92-16.6-3.92-7.6,0-14.26,1.76-19.95,5.26-5.69,3.51-10.12,8.47-13.28,14.88-3.15,6.42-4.74,13.98-4.74,22.68,0,5.86.86,11.39,2.58,16.55,1.72,5.17,4.19,9.73,7.42,13.65,3.23,3.93,7.12,7.02,11.67,9.24,4.55,2.24,9.66,3.36,15.34,3.36,5.12,0,9.52-.98,13.2-2.95,3.67-1.96,6.64-4.78,8.88-8.43,2.24-3.65,3.85-8.11,4.84-13.39h2.55v23.05h33.03v-18.65h-12.08ZM563.19,88.77c-1.67,3.47-4.07,6.18-7.2,8.13-3.13,1.94-6.86,2.91-11.19,2.91s-7.91-.97-11.04-2.91c-3.14-1.95-5.57-4.64-7.32-8.1-1.74-3.46-2.61-7.47-2.61-12.04s.83-8.6,2.5-12.09c1.66-3.48,4.06-6.19,7.2-8.13,3.13-1.94,6.88-2.91,11.27-2.91s8.13.97,11.26,2.91c3.14,1.94,5.52,4.63,7.17,8.05,1.64,3.43,2.46,7.41,2.46,11.94s-.84,8.75-2.5,12.24Z"/>
  <path class="cls-1" d="M258.52,151.95c-39.19,0-43.49,32.16-43.49,41.41,0,36.41,33.13,40.98,43.49,40.98,37.64,0,43.42-29.75,43.42-40.98,0-9.57-4.47-41.41-43.42-41.41ZM258.52,215.03c-18.7,0-20.89-16.65-20.89-21.75,0-18.05,13.92-22.11,20.89-22.11,18.41,0,20.88,16.97,20.88,22.11,0,18.9-15.17,21.75-20.88,21.75Z"/>
  <path class="cls-1" d="M371.87,136.1c-10.3,0-51.9,4.51-51.9,48.88,0,13.45,7.15,49.42,51.9,49.42,10.31,0,51.82-4.52,51.82-49.42,0-11.25-5.73-48.88-51.82-48.88ZM371.87,213.17c-24.75,0-27.5-22.09-27.5-28.2,0-23.03,18.79-27.65,27.42-27.65,24.7,0,27.5,21.43,27.5,27.65,0,23.76-19.15,28.2-27.42,28.2Z"/>
  <path class="cls-1" d="M515,190.32c-5.42-4.38-14.25-7.33-26.48-8.88-6.32-.85-10.98-1.99-13.99-3.43-3.01-1.44-4.51-3.38-4.51-5.82,0-1.94.84-3.54,2.54-4.81,1.69-1.27,4.23-1.9,7.61-1.9,4.23,0,7.96,1,11.19,2.98,3.23,1.99,5.22,4.62,5.97,7.91h22.68v-26.18h-20.95v15.81h-2.54c-.5-3.68-1.58-6.81-3.24-9.4-1.67-2.58-4.02-4.54-7.05-5.85-3.03-1.32-6.79-1.98-11.26-1.98-8.75,0-15.57,2.14-20.44,6.41-4.87,4.28-7.31,9.95-7.31,17.01,0,7.51,2.9,13.63,8.69,18.35,5.79,4.72,15.08,7.88,27.86,9.47,6.27.7,10.6,1.75,13.02,3.17,2.41,1.42,3.62,3.42,3.62,6s-.95,4.46-2.83,5.78c-1.89,1.32-4.75,1.98-8.58,1.98-4.92,0-9.18-1.03-12.76-3.1-3.58-2.06-5.74-4.66-6.49-7.79h-22.68v26.56h20.95v-15.89h2.47c.6,3.68,1.88,6.81,3.84,9.4,1.96,2.59,4.65,4.56,8.06,5.93,3.41,1.37,7.55,2.05,12.42,2.05,9.35,0,16.41-2.25,21.18-6.75,4.77-4.5,7.16-10.68,7.16-18.54s-2.71-14.12-8.13-18.5Z"/>
  <path class="cls-1" d="M569.53,161.11v-2.91s10.88-6.43,10.88-24.1h-21.73c0,24.65-18.66,31.02-18.66,31.02v12.4h18.72v35.31c0,11.93,8.04,21.64,19.97,21.64h20.41v-19.88h-11.17c-4.15,0-7.49-3.33-7.49-7.49v-29.58h18.66v-19.9h-25.07l-4.52,3.5Z"/>
  <path class="cls-1" d="M176.23,130.22c-6.65-4.17-14.72-7.27-24.21-9.29v-1.34c6.98-2.07,13.03-4.82,18.14-8.24,11.59-7.76,17.96-19.57,19.12-35.42.13-1.78.2-3.6.2-5.48,0-18.73-6.32-32.9-18.95-42.5-12.63-9.61-29.97-14.42-52.01-14.42h-12.34c0,28.87,14.37,44.51,31.16,52.95,22.31,11.21,48.9,9.67,51.7,9.47-42.46,3.72-82.76,27.92-82.86,62.25h8.54c8,0,14.8.78,20.41,2.34,5.61,1.56,10.17,3.78,13.68,6.66,3.51,2.88,6.1,6.24,7.75,10.09,1.66,3.85,2.49,8.03,2.49,12.51,0,10.54-3.93,18.56-11.78,24.07-7.85,5.51-18.22,8.26-31.09,8.26h-49.46v-63.94h39.46c-.08-42.8-35.53-61.39-73.45-62.23,13.64-.11,73.45-3.91,73.45-62.44H0v32.34h29.85v156.26H0v32.34h128.17c21.66,0,38.65-5.32,50.99-15.95,12.34-10.63,18.51-25.55,18.51-44.78,0-10.33-1.8-19.07-5.41-26.19-3.61-7.12-8.95-12.9-16.02-17.34Z"/>
</svg>