<?xml version="1.0" encoding="UTF-8"?>
<svg id="Layer_1" xmlns="http://www.w3.org/2000/svg" viewBox="0 0 300 335.33">
  <defs>
    <style>
      .cls-1 {
        fill: #09060a;
      }
    </style>
  </defs>
  <path class="cls-1" d="M267.47,177.11c-10.09-6.33-22.34-11.04-36.75-14.1v-2.03c10.59-3.14,19.78-7.31,27.53-12.51,17.58-11.78,27.26-29.69,29.02-53.76.2-2.69.3-5.46.3-8.31,0-28.42-9.59-49.93-28.76-64.51C239.64,7.29,213.32,0,179.87,0h-18.73c0,43.81,21.81,67.56,47.29,80.36,33.87,17.01,74.21,14.68,78.46,14.37-64.45,5.65-125.6,42.38-125.76,94.47h12.96c12.14,0,22.46,1.19,30.97,3.55,8.51,2.36,15.43,5.73,20.77,10.1,5.33,4.37,9.26,9.47,11.77,15.32,2.52,5.85,3.78,12.18,3.78,18.99,0,15.99-5.96,28.16-17.89,36.53-11.91,8.37-27.65,12.54-47.18,12.54h-75.07v-97.04h59.89c-.11-64.96-53.93-93.17-111.47-94.44,20.69-.17,111.47-5.93,111.47-94.76H0v49.09h45.3v237.16H0v49.09h194.52c32.88,0,58.66-8.07,77.39-24.21,18.73-16.14,28.09-38.78,28.09-67.96,0-15.68-2.74-28.94-8.21-39.74-5.47-10.81-13.59-19.58-24.32-26.31Z"/>
</svg>