<?xml version="1.0" encoding="UTF-8"?>
<svg id="Layer_1" xmlns="http://www.w3.org/2000/svg" viewBox="0 0 600 624.16">
  <defs>
    <style>
      .cls-1 {
        fill: #c5fc7a;
      }

      .cls-2 {
        fill: #f1f2f2;
      }

      .cls-3 {
        fill: #d796f5;
      }
    </style>
  </defs>
  <g>
    <path class="cls-2" d="M112.01,71.8l-5.01-8.21,29.63-18.09,5.01,8.21-10.29,6.28,32.34,52.98,10.29-6.28,5.01,8.21-29.63,18.09-5.01-8.21,10.29-6.28-32.34-52.98-10.29,6.28ZM139.51,55.01l-5.01-8.21,8.86-5.41c6.71-4.1,12.89-5.8,18.57-5.13s10.3,3.95,13.89,9.83c3.57,5.85,4.23,11.31,1.99,16.39-2.24,5.08-7.1,9.91-14.57,14.47l-18.27,11.16-2.65-4.34,18.46-11.27c3.17-1.93,5.38-4.02,6.63-6.26,1.25-2.24,1.77-4.5,1.56-6.78-.21-2.28-.94-4.45-2.2-6.51-2.18-3.57-5.06-5.46-8.63-5.69-3.58-.22-7.43.92-11.55,3.44l-7.06,4.31ZM171.02,108.49l9-5.49c4.58-2.8,7.66-6.02,9.24-9.66,1.58-3.64,1.21-7.36-1.1-11.14-1-1.63-2.21-2.95-3.65-3.95-1.44-1-3.09-1.63-4.98-1.87-1.88-.25-3.98-.04-6.31.62-2.32.66-4.88,1.84-7.68,3.55l-18.37,11.21-3.47-5.68,18.37-11.21c4.06-2.48,7.86-4.37,11.4-5.66,3.54-1.29,6.8-1.91,9.79-1.86,2.99.06,5.73.87,8.24,2.44,2.5,1.58,4.74,3.98,6.71,7.21,3.68,6.03,4.66,11.86,2.95,17.49-1.72,5.63-5.88,10.46-12.49,14.5l-12.64,7.72-5.01-8.21ZM168.65,70.47l4.43-2.7,1.35,2.22-4.43,2.7-1.35-2.21Z"/>
    <path class="cls-2" d="M225.62,15.35l-1.19-9.55,34.44-4.28,1.19,9.55-11.96,1.49,7.66,61.59,11.96-1.49,1.19,9.55-34.44,4.28-1.19-9.55,11.96-1.49-7.66-61.59-11.96,1.49ZM254.11,11.81l-1.19-9.55,14.49-1.8c9.23-1.15,16.4-.14,21.51,3.02,5.11,3.16,8.09,8.08,8.92,14.77.41,3.33.19,6.46-.68,9.4-.87,2.94-2.36,5.53-4.48,7.78-2.12,2.24-4.84,4.01-8.17,5.29l.22,1.77-13,2.76-20.71,2.57-1.15-9.23,21.46-2.67c3.79-.47,6.94-1.38,9.44-2.73,2.5-1.35,4.29-3.09,5.37-5.22,1.08-2.13,1.43-4.68,1.07-7.65-.54-4.33-2.51-7.29-5.93-8.88-3.41-1.59-7.77-2.06-13.06-1.4l-14.11,1.75ZM275.84,38.09c2.23.12,4.48.71,6.76,1.77,2.27,1.06,3.94,2.65,5.01,4.77l12.36,24.02,8.53-1.06,1.19,9.55-16.26,2.02-13.54-27.41c-1.31-2.63-2.71-4.41-4.2-5.33-1.5-.92-3.58-1.22-6.27-.88l-4.13.51,10.56-7.96Z"/>
    <path class="cls-2" d="M408.72,92.45l6.9,2.21-2.93,9.17-32.95-10.55,2.94-9.17,15.5,4.96-4.93-67.94,4.79,6.13-9.68-3.1,7.46-2.21-43.47,52.44,15.5,4.96-2.94,9.17-32.44-10.39,2.93-9.17,6.9,2.21,49.41-59.46,11.33,3.63,5.69,77.1ZM403.86,64.89l-2.8,8.75-41.29-13.22,2.8-8.75,41.29,13.22Z"/>
    <path class="cls-2" d="M480.65,62.41l6.7-6.91,19.57,18.96-8.09,8.19-3.77-3.65-41.88,43.21,8.7,8.43-6.7,6.91-24.42-23.67,6.7-6.91,8.66,8.39,43.2-44.57-8.66-8.39ZM478.55,160.21l19.63-94.21,8.77,8.5-19.59,94.25-8.81-8.54ZM522.27,102.74l6.7-6.91,24.46,23.71-6.7,6.91-8.66-8.39-49.89,51.48-9.59-9.29,7.37-13.04,5.24,5.08,39.81-41.07-8.73-8.47Z"/>
    <path class="cls-2" d="M507.21,196.02l9.08-3.18,3.98,11.38,58.59-20.48-3.98-11.38,9.08-3.18,12.1,34.6-9.09,3.18-4.62-13.22-58.59,20.48,4.62,13.22-9.09,3.18-12.1-34.6ZM518.2,227.46l9.08-3.18,2.12,6.07c2.02,5.78,5.05,10.44,9.09,13.97,4.04,3.53,8.71,5.75,14.02,6.67,5.3.91,10.85.36,16.63-1.66,5.75-2.01,10.38-5.01,13.89-9.01,3.51-4,5.72-8.63,6.63-13.89.91-5.26.35-10.79-1.67-16.57l-2.12-6.07,9.08-3.18,2.12,6.07c2.76,7.89,3.56,15.4,2.41,22.53-1.16,7.12-4.01,13.36-8.57,18.72-4.56,5.36-10.59,9.34-18.07,11.96-7.59,2.65-14.87,3.32-21.84,1.99-6.97-1.32-13.14-4.41-18.5-9.25s-9.42-11.22-12.18-19.11l-2.12-6.07Z"/>
    <path class="cls-2" d="M442.59,509.16l-8.7,5.95c-4.43,3.03-7.34,6.41-8.73,10.13-1.39,3.72-.83,7.41,1.67,11.07,1.08,1.58,2.36,2.83,3.85,3.76,1.49.93,3.17,1.46,5.06,1.61,1.89.15,3.98-.17,6.27-.94s4.78-2.09,7.49-3.94l17.76-12.15,3.75,5.49-17.76,12.15c-3.93,2.68-7.62,4.77-11.09,6.24-3.47,1.48-6.69,2.26-9.68,2.36-2.99.1-5.77-.57-8.35-2.02-2.58-1.44-4.94-3.73-7.08-6.85-3.99-5.83-5.27-11.6-3.85-17.31,1.42-5.71,5.33-10.75,11.73-15.13l12.23-8.36,5.43,7.94ZM503.42,542.76l5.43,7.94-28.65,19.59-5.43-7.94,9.95-6.81-35.03-51.23-9.95,6.81-5.43-7.94,28.65-19.59,5.43,7.94-9.95,6.81,35.03,51.23,9.95-6.81ZM476.82,560.95l5.43,7.94-8.57,5.86c-6.49,4.44-12.58,6.46-18.28,6.08-5.7-.38-10.49-3.42-14.38-9.1-3.87-5.65-4.81-11.08-2.84-16.27,1.97-5.19,6.58-10.26,13.8-15.2l17.67-12.09,2.87,4.2-17.85,12.21c-3.06,2.1-5.16,4.29-6.3,6.6s-1.54,4.59-1.21,6.85c.33,2.26,1.17,4.39,2.53,6.39,2.36,3.45,5.33,5.2,8.92,5.23,3.58.04,7.37-1.31,11.36-4.03l6.83-4.67ZM446.92,547.01l-4.28,2.93-1.46-2.14,4.28-2.93,1.46,2.14Z"/>
    <path class="cls-2" d="M337.78,540.63c6.16-.97,11.94-.84,17.36.39,5.41,1.23,10.26,3.41,14.54,6.53,4.28,3.12,7.82,7.07,10.62,11.85,2.79,4.78,4.67,10.23,5.63,16.35.95,6.05.82,11.76-.4,17.11-1.22,5.35-3.39,10.15-6.5,14.4-3.11,4.25-7.05,7.77-11.83,10.59-4.78,2.81-10.23,4.7-16.35,5.66-6.16.97-11.94.84-17.35-.37-5.41-1.21-10.24-3.36-14.5-6.45-4.26-3.09-7.8-6.99-10.62-11.71-2.82-4.72-4.71-10.11-5.66-16.16-.96-6.12-.84-11.89.38-17.3,1.21-5.41,3.38-10.25,6.5-14.54s7.06-7.84,11.81-10.67c4.76-2.83,10.21-4.72,16.37-5.69ZM339.44,550.88c-6.05.95-11.17,3.12-15.34,6.51-4.17,3.39-7.17,7.65-9,12.77-1.82,5.12-2.25,10.76-1.28,16.92.96,6.12,3.09,11.32,6.39,15.58,3.3,4.26,7.44,7.33,12.45,9.21,5,1.88,10.51,2.34,16.53,1.4,6.05-.95,11.16-3.08,15.33-6.4,4.17-3.32,7.18-7.51,9.02-12.58,1.85-5.07,2.29-10.67,1.33-16.79-.97-6.16-3.11-11.4-6.43-15.71-3.32-4.31-7.48-7.44-12.48-9.4-4.99-1.95-10.5-2.46-16.52-1.51Z"/>
    <path class="cls-2" d="M230.88,532.42c5.94,1.91,11.05,4.62,15.32,8.16,4.28,3.53,7.63,7.65,10.05,12.37,2.42,4.71,3.81,9.83,4.15,15.36.35,5.52-.43,11.24-2.32,17.14-1.87,5.83-4.56,10.87-8.06,15.1-3.5,4.23-7.59,7.55-12.28,9.94-4.69,2.39-9.79,3.77-15.33,4.14-5.53.36-11.25-.4-17.15-2.3-5.94-1.91-11.05-4.62-15.33-8.13-4.28-3.51-7.64-7.61-10.05-12.28-2.42-4.67-3.82-9.75-4.22-15.24-.4-5.48.34-11.14,2.21-16.98,1.9-5.9,4.6-11,8.11-15.28,3.52-4.29,7.63-7.64,12.35-10.06,4.72-2.42,9.83-3.83,15.35-4.21,5.52-.39,11.25.37,17.18,2.28ZM227.76,542.32c-5.83-1.87-11.38-2.23-16.63-1.08-5.25,1.15-9.84,3.61-13.78,7.36-3.93,3.75-6.85,8.6-8.76,14.54-1.9,5.9-2.33,11.5-1.3,16.79,1.03,5.29,3.35,9.9,6.98,13.82,3.62,3.93,8.33,6.82,14.13,8.68,5.83,1.87,11.36,2.26,16.57,1.18,5.21-1.09,9.79-3.48,13.72-7.18,3.93-3.7,6.84-8.5,8.74-14.4,1.91-5.94,2.35-11.58,1.32-16.92-1.03-5.35-3.33-10.01-6.92-14-3.58-3.99-8.28-6.92-14.08-8.78Z"/>
    <path class="cls-2" d="M92.56,512.87l-16.62,18.21-7.83-7.15,16.62-18.21,7.83,7.15ZM141.35,479.23c5.35,4.88,8.6,9.89,9.75,15.02,1.15,5.13.2,10-2.86,14.63l1.76,1.6-7.16,4.96c2.73-4.44,3.51-9.18,2.34-14.23-1.17-5.05-4.12-9.72-8.83-14.03-4.21-3.84-8.22-5.93-12.03-6.26-3.82-.34-7.18,1.09-10.1,4.29-1.99,2.18-3.13,4.47-3.42,6.87-.29,2.4.3,5.1,1.75,8.11,1.45,3.01,3.85,6.53,7.2,10.56,4.45,5.33,7.63,10.31,9.54,14.93,1.91,4.62,2.58,8.91,2.02,12.86-.56,3.95-2.35,7.58-5.36,10.88-4.49,4.92-9.68,7.24-15.57,6.95-5.88-.29-11.75-3.11-17.61-8.46-3.43-3.13-5.92-6.31-7.47-9.53-1.55-3.22-2.15-6.44-1.8-9.66.35-3.22,1.63-6.41,3.83-9.57l-1.76-1.6,6.98-4.68c-2.74,4.28-3.61,8.91-2.6,13.88,1,4.97,3.66,9.42,7.98,13.36,3.7,3.38,7.31,5.29,10.82,5.75,3.52.45,6.48-.64,8.88-3.27,1.68-1.84,2.58-3.92,2.7-6.25.12-2.33-.55-5.04-2.02-8.14-1.47-3.1-3.75-6.69-6.84-10.79-4.62-5.73-7.89-10.86-9.79-15.38-1.9-4.52-2.51-8.68-1.81-12.49.69-3.81,2.66-7.48,5.89-11.02,4.96-5.43,10.57-8.09,16.84-7.98,6.27.11,12.52,3.01,18.75,8.7ZM167.25,504.34l-16.62,18.21-7.79-7.11,16.62-18.21,7.79,7.11Z"/>
    <path class="cls-2" d="M0,407.23l24.58-11.24,4.41,9.64-15.83,7.24,9.6,21,56.45-25.81-5.01-10.97,8.75-4,14.43,31.57-8.75,4-5.01-10.97-56.45,25.81,9.58,20.95,15.83-7.24,4.41,9.64-24.58,11.24L0,407.23Z"/>
  </g>
  <g>
    <path class="cls-3" d="M394.35,335.87c-3.65-7.19-9.04-13.03-16.18-17.51-6.72-4.21-14.87-7.34-24.45-9.38v-1.36c7.05-2.09,13.16-4.86,18.32-8.32,13-8.72,19.5-22.48,19.5-41.3s-6.38-33.22-19.14-42.92c-12.76-9.7-30.27-14.55-52.53-14.55h-119.69v32.66h30.14v157.81h-30.14v32.66h129.44c21.87,0,39.03-5.37,51.49-16.11,12.46-10.74,18.69-25.81,18.69-45.21,0-10.44-1.82-19.26-5.47-26.45ZM348.91,382.63c-7.93,5.57-18.4,8.35-31.4,8.35h-49.94v-64.57h48.47c8.08,0,14.95.79,20.61,2.36,5.66,1.58,10.27,3.82,13.82,6.72,3.55,2.91,6.16,6.31,7.83,10.2,1.67,3.89,2.51,8.1,2.51,12.63,0,10.64-3.97,18.74-11.89,24.31Z"/>
    <path class="cls-1" d="M307.41,326.55h0c0-44.37-37.59-63.01-76.94-63.01,0,0,76.94,3.69,76.94-63.01h0c0,70.11,83.93,63.01,83.93,63.01-43.03,3.69-83.93,28.21-83.93,63.01Z"/>
  </g>
</svg>