<?xml version="1.0" encoding="utf-8"?>
<!-- Generator: Adobe Illustrator 24.0.1, SVG Export Plug-In . SVG Version: 6.00 Build 0)  -->
<svg version="1.1" id="Layer_1" xmlns="http://www.w3.org/2000/svg" xmlns:xlink="http://www.w3.org/1999/xlink" x="0px" y="0px"
	 viewBox="0 0 1000 1000" style="enable-background:new 0 0 1000 1000;" xml:space="preserve">
<style type="text/css">
	.st0{display:none;fill:#6383F0;}
	.st1{fill:#6383F0;}
</style>
<rect x="629" y="-153" class="st0" width="1920" height="1080"/>
<path id="XMLID_1331_" class="st1" d="M730.49,268.06c-0.28-3.93-2.02-7.61-4.8-10.39l-30.79-30.79c-6.48-6.52-16.95-6.52-23.39,0
	L551.56,346.76c-3.11,3.14-4.84,7.37-4.84,11.72c0,4.4,1.74,8.63,4.84,11.72l22.04,22.03l-129.02,129l-22.03-22.04
	c-6.48-6.46-16.92-6.46-23.38,0L279.25,619.13c-3.14,3.08-4.83,7.3-4.83,11.65c0,4.46,1.69,8.63,4.83,11.71l30.79,30.85
	c2.81,2.77,6.49,4.47,10.4,4.76l19.58,1.53l-25.28,34.2c-5.18,6.95-3.98,16.96,2.77,22.52l13.4,11.11l-15.04,16.3
	c-6.17,6.7-5.72,17.21,0.98,23.36c3.19,2.9,7.2,4.41,11.21,4.41c4.49,0,8.91-1.81,12.18-5.38L367.04,757
	c3.1-3.32,4.68-7.79,4.36-12.38c-0.31-4.52-2.49-8.75-5.97-11.59l-14.76-12.25l28.23-38.12l40.57,3.16
	c0.42,0.06,0.86,0.06,1.28,0.06c3.08,0,6.07-0.84,8.68-2.47c3.54-2.17,87.9-54.45,169.88-136.42
	c81.99-82.03,134.27-166.42,136.48-169.92c1.86-2.97,2.67-6.46,2.4-9.96L730.49,268.06z M575.91,523.58
	c-68.65,68.63-140.97,116.98-159.36,128.87l-87.43-6.82l-14.78-14.85l96.51-96.46l15.5,15.45l0.92,2.53
	c2.01,5.25,6.54,9.12,11.98,10.32c5.51,1.21,11.23-0.48,15.25-4.47l156.04-156.1c3.98-3.92,5.65-9.66,4.47-15.16
	c-1.18-5.5-5.09-10.01-10.31-11.95l-2.55-0.97l-15.45-15.51l96.52-96.46l14.76,14.73l6.83,87.41
	C692.89,382.63,644.6,454.88,575.91,523.58z"/>
</svg>
