<?xml version="1.0" encoding="utf-8"?>
<!-- Generator: Adobe Illustrator 24.0.1, SVG Export Plug-In . SVG Version: 6.00 Build 0)  -->
<svg version="1.1" id="Layer_1" xmlns="http://www.w3.org/2000/svg" xmlns:xlink="http://www.w3.org/1999/xlink" x="0px" y="0px"
	 viewBox="0 0 1000 1000" style="enable-background:new 0 0 1000 1000;" xml:space="preserve">
<style type="text/css">
	.st0{display:none;fill:#6383F0;}
	.st1{fill-rule:evenodd;clip-rule:evenodd;fill:#6383F0;}
	.st2{fill:#6383F0;}
</style>
<rect x="629" y="-153" class="st0" width="1920" height="1080"/>
<path id="XMLID_1_" class="st1" d="M424.99,213.97l25.06-1.58c12.57,1.58,15.1,11.78,15.1,11.78l28.07,131.64
	c1.1,5.85,2.61,8.22-1.03,13.68c-1.43,2.29-3.64,5.14-6.33,7.51c-8.93,7.91-22.05,13.84-24.9,1.03L424.99,213.97L424.99,213.97z
	 M410.84,218.56c0,0-17.24,0-42.3,12.41c-25.07,12.41-53.37,35.69-53.37,35.69s-1.5,68.27,6.33,141.09
	c7.82,72.89,49.17,184.76,100.96,252.99c47.2,62.3,103.81,99.69,165.63,147.21c14.08,10.83,95.59-41.9,95.59-41.9L568.17,634.96
	c0,0-6.8,14.79-20.87,27.2c-14.15,12.41-21.98-3.08-21.98-3.08S414,432.57,404.6,410.83c-9.41-21.74,7.83-23.25,7.83-23.25h36.05
	L410.84,218.56L410.84,218.56z M578.05,623.18L599,608.56l9.09-1.66l9.49,3.25l97.8,109.97c10.12,11.46-12.81,49.17-35.18,19.92
	L578.05,623.18"/>
<path id="XMLID_1019_" class="st2" d="M239.07,178.06c-30.52,0-55.5,24.98-55.5,55.5v554.68c0,30.52,24.98,55.42,55.5,55.42h554.76
	c30.52,0,55.5-24.9,55.5-55.42V233.56c0-30.51-24.98-55.5-55.5-55.5H239.07L239.07,178.06z M239.07,150.39h554.76
	c45.78,0,83.17,37.43,83.17,83.17v554.68c0,45.77-37.39,83.17-83.17,83.17H239.07c-45.7,0-83.17-37.4-83.17-83.17V233.56
	C155.9,187.82,193.38,150.39,239.07,150.39"/>
</svg>
