<?xml version="1.0" encoding="utf-8"?>
<!-- Generator: Adobe Illustrator 24.0.1, SVG Export Plug-In . SVG Version: 6.00 Build 0)  -->
<svg version="1.1" id="Layer_1" xmlns="http://www.w3.org/2000/svg" xmlns:xlink="http://www.w3.org/1999/xlink" x="0px" y="0px"
	 viewBox="0 0 1000 1000" style="enable-background:new 0 0 1000 1000;" xml:space="preserve">
<style type="text/css">
	.st0{display:none;fill:#6383F0;}
	.st1{fill:#6383F0;}
</style>
<rect x="629" y="-153" class="st0" width="1920" height="1080"/>
<g id="XMLID_41_">
	<path id="XMLID_33_" class="st1" d="M756.8,304H289.97c-33.13,0-60.24,27.11-60.24,60.24v22.59c0,8.28,6.78,15.06,15.06,15.06
		s15.06-6.78,15.06-15.06v-22.59c0-3.01,0.75-6.02,1.51-9.03l168.66,144.57L261.36,644.33c-0.75-3.01-1.51-6.02-1.51-9.03v-22.59
		c0-8.28-6.78-15.06-15.06-15.06s-15.06,6.78-15.06,15.06v22.59c0,33.13,27.11,60.24,60.24,60.24H756.8
		c33.13,0,60.24-27.11,60.24-60.24V364.24C817.04,331.11,789.93,304,756.8,304z M283.95,334.87c1.51-0.75,3.76-0.75,6.02-0.75H756.8
		c2.26,0,4.52,0,6.02,0.75L533.18,531.39c-6.02,4.52-13.55,4.52-19.58,0L283.95,334.87z M756.8,665.42H289.97
		c-2.26,0-4.52,0-6.02-0.75l169.41-145.32l40.66,35.39c8.28,7.53,18.82,11.29,29.36,11.29s21.08-3.76,29.37-11.29l40.66-35.39
		l169.41,145.32C761.32,665.42,759.06,665.42,756.8,665.42z M786.92,635.3c0,3.01-0.75,6.02-1.51,9.03L616.75,499.77L785.42,355.2
		c0.75,3.01,1.51,6.02,1.51,9.03V635.3z M184.56,462.12c0-8.28,6.78-15.06,15.06-15.06h90.36c8.28,0,15.06,6.78,15.06,15.06
		s-6.78,15.06-15.06,15.06h-90.36C191.34,477.18,184.56,470.4,184.56,462.12z M289.97,552.47H154.44c-8.28,0-15.06-6.78-15.06-15.06
		c0-8.28,6.78-15.06,15.06-15.06h135.53c8.28,0,15.06,6.78,15.06,15.06C305.03,545.7,298.25,552.47,289.97,552.47z"/>
</g>
</svg>
