<?xml version="1.0" encoding="utf-8"?>
<!-- Generator: Adobe Illustrator 24.0.1, SVG Export Plug-In . SVG Version: 6.00 Build 0)  -->
<svg version="1.1" id="Layer_1" xmlns="http://www.w3.org/2000/svg" xmlns:xlink="http://www.w3.org/1999/xlink" x="0px" y="0px"
	 viewBox="0 0 1000 1000" style="enable-background:new 0 0 1000 1000;" xml:space="preserve">
<style type="text/css">
	.st0{display:none;fill:#6383F0;}
	.st1{fill:#6383F0;}
</style>
<rect x="629" y="-153" class="st0" width="1920" height="1080"/>
<path id="XMLID_499_" class="st1" d="M767.75,715.2c1.94-6.38,2.94-13.11,4.25-19.61c2.19-10.9,4.51-21.77,6.77-32.64
	c0.67-3.23,1.34-6.47,2.01-9.7c7.4-37.62-17.11-74.12-54.74-81.52l-60.16-11.83c-37.62-7.39-74.12,17.11-81.52,54.74l-1.4,6.78
	c-32.47-16.61-66.63-40.82-99.24-73.42c-32.91-32.91-57.22-67.27-73.86-99.85l6.63-1.38c37.63-7.4,62.14-43.89,54.75-81.52
	l-11.83-60.16c-7.39-37.63-43.89-62.14-81.52-54.74c-10.27,2.13-20.55,4.27-30.83,6.4c-22.49,4.66-45.88,4.61-56.42,28.79
	c-5.2,11.93-6.04,25.44-7.93,38.12c-2.07,13.91-2.04,28.36-1.13,42.35c2.2,33.98,11.26,67.3,24.29,98.66
	c24.18,58.17,62.04,110.34,106.44,154.74c29.27,29.26,61.85,55.33,97.29,76.75c31.72,19.17,65.86,34.74,101.71,44.35
	c31.2,8.37,64,12.25,96.21,8.42c19.09-2.27,45.57-5.11,56.11-23.82C765.4,721.97,766.71,718.63,767.75,715.2z"/>
</svg>
