<?xml version="1.0" encoding="utf-8"?>
<!-- Generator: Adobe Illustrator 24.0.1, SVG Export Plug-In . SVG Version: 6.00 Build 0)  -->
<svg version="1.1" id="Layer_1" xmlns="http://www.w3.org/2000/svg" xmlns:xlink="http://www.w3.org/1999/xlink" x="0px" y="0px"
	 viewBox="0 0 1000 1000" style="enable-background:new 0 0 1000 1000;" xml:space="preserve">
<style type="text/css">
	.st0{display:none;fill:#6383F0;}
	.st1{fill:#6383F0;}
</style>
<rect x="629" y="-153" class="st0" width="1920" height="1080"/>
<g id="XMLID_993_">
	<path id="XMLID_997_" class="st1" d="M781.5,237.86c-9.13-9.13-21.27-14.16-34.19-14.16c-12.91,0-25.06,5.03-34.18,14.16
		L690.95,260v-41.65c0-26.66-21.69-48.35-48.35-48.35H371.83c-26.66,0-48.36,21.69-48.36,48.35l0,178.8c0,5.34,4.33,9.67,9.67,9.67
		c5.34,0,9.67-4.33,9.67-9.67l-0.01-169.13h328.8v160.59l-51.87,51.72c-18.85,18.85-18.85,49.53,0,68.38
		c7.67,7.67,17.3,12.22,27.3,13.65l-27.3,27.21c-18.85,18.85-18.85,49.53,0,68.38c7.69,7.69,17.35,12.24,27.37,13.66
		c-17.21,17.21-18.71,44.24-4.54,63.16H342.82V532.54c0-5.33,4.34-9.67,9.67-9.67h38.68c26.66,0,48.35-21.69,48.35-48.35
		s-21.69-48.35-48.35-48.35h-58.02c-47.99,0-87.03,39.04-87.03,87.03v123.84c0,33.58,13.08,65.15,36.82,88.9l40.54,40.54v15.33
		c0,26.66,21.69,48.35,48.35,48.35H642.6c26.66,0,48.35-21.69,48.35-48.35v-68.64c8.99-1.82,17.56-6.2,24.52-13.16l27.35-27.35
		c18.85-18.85,18.85-49.53,0-68.38c-7.48-7.48-16.98-12.21-27.28-13.67l27.28-27.19c18.85-18.85,18.85-49.53,0-68.38
		c-7.48-7.48-16.99-12.21-27.28-13.67l27.28-27.2c18.85-18.85,18.85-49.53,0-68.38c-7.49-7.49-17-12.21-27.31-13.67l65.99-65.87
		C800.36,287.39,800.36,256.72,781.5,237.86L781.5,237.86z M371.83,189.34H642.6c12.61,0,23.36,8.09,27.35,19.34H344.48
		C348.47,197.43,359.22,189.34,371.83,189.34L371.83,189.34z M296.61,712.26c-20.09-20.09-31.16-46.8-31.16-75.22V513.2
		c0-37.33,30.37-67.69,67.69-67.69h58.02c16,0,29.01,13.01,29.01,29.01c0,16-13.01,29.01-29.01,29.01h-38.68
		c-16,0-29.01,13.01-29.01,29.01v206.58L296.61,712.26z M642.6,810.83H371.83c-16,0-29.01-13.02-29.01-29.01v-67.69h328.79v67.69
		C671.61,797.81,658.6,810.83,642.6,810.83z M708.63,609.46c7.75,0,15.03,3.02,20.51,8.5c11.31,11.31,11.31,29.72,0,41.03
		l-27.35,27.35c-5.66,5.66-13.09,8.48-20.51,8.48c0-0.04-0.85-0.04-0.85-0.04c-7.14-0.21-14.23-3-19.67-8.45
		c-11.31-11.31-11.31-29.72,0-41.03l27.34-27.34C693.6,612.48,700.89,609.46,708.63,609.46L708.63,609.46z M708.63,500.21
		c7.75,0,15.03,3.02,20.51,8.5c11.31,11.31,11.31,29.72,0.01,41.02l-54.71,54.55c-11.31,11.31-29.72,11.31-41.03,0
		c-11.31-11.31-11.31-29.72-0.01-41.02l54.7-54.54C693.6,503.23,700.89,500.21,708.63,500.21L708.63,500.21z M729.16,440.48
		l-54.7,54.54c-11.32,11.32-29.73,11.32-41.04,0.01c-11.31-11.31-11.31-29.72-0.01-41.02l54.71-54.55c5.48-5.48,12.77-8.5,20.51-8.5
		s15.03,3.02,20.51,8.5C740.46,410.78,740.46,429.18,729.16,440.48z M767.83,292.56l-76.88,76.75v-81.99l35.85-35.79
		c5.48-5.48,12.77-8.5,20.51-8.5c7.75,0,15.04,3.02,20.51,8.5c5.48,5.48,8.5,12.77,8.5,20.51S773.31,287.09,767.83,292.56z"/>
	<path id="XMLID_994_" class="st1" d="M507.21,733.46c-16,0-29.01,13.02-29.01,29.01s13.01,29.01,29.01,29.01
		s29.01-13.01,29.01-29.01S523.21,733.46,507.21,733.46L507.21,733.46z M507.21,772.14c-5.33,0-9.67-4.34-9.67-9.67
		s4.34-9.67,9.67-9.67c5.33,0,9.67,4.34,9.67,9.67S512.55,772.14,507.21,772.14z"/>
</g>
</svg>
