<?xml version="1.0" encoding="utf-8"?>
<!-- Generator: Adobe Illustrator 24.0.1, SVG Export Plug-In . SVG Version: 6.00 Build 0)  -->
<svg version="1.1" id="Layer_1" xmlns="http://www.w3.org/2000/svg" xmlns:xlink="http://www.w3.org/1999/xlink" x="0px" y="0px"
	 viewBox="0 0 1000 1000" style="enable-background:new 0 0 1000 1000;" xml:space="preserve">
<style type="text/css">
	.st0{display:none;fill:#6383F0;}
	.st1{fill:#6383F0;}
</style>
<rect x="629" y="-153" class="st0" width="1920" height="1080"/>
<g id="XMLID_1061_">
	<path id="XMLID_1062_" class="st1" d="M566.63,836.26c-1.95,0-3.89-0.28-5.73-0.75c-6.41-1.58-11.79-5.75-15.04-11.5L436.33,626.48
		l-99.61,91.43c-6.96,6.49-16.97,8.17-25.59,4.27c-8.63-3.71-14.2-12.24-14.2-21.7V186.8c0-9.19,5.29-17.54,13.64-21.43
		c8.06-4.08,18.17-2.79,25.13,3.06L736.26,497.1c7.33,5.95,10.39,15.69,7.88,24.67c-2.5,9.08-10.11,15.77-19.38,17.16l-145.51,21.79
		l98.31,182.05c5.93,10.96,2.41,24.5-7.98,31.26l-90.06,58.43C575.63,834.96,571.19,836.26,566.63,836.26z M442.46,564.8
		c1.3,0,2.5,0.1,3.8,0.28c7.14,1.21,13.44,5.56,16.97,11.96l111.84,201.72l50.27-32.65L521.37,553.58
		c-3.71-6.86-3.79-15.02-0.36-21.9c3.44-6.95,10.11-11.76,17.71-12.89l126.13-18.91L344.42,236.97v409.45l82-75.31
		C430.77,567.03,436.52,564.8,442.46,564.8z"/>
</g>
</svg>
