<?xml version="1.0" encoding="utf-8"?>
<!-- Generator: Adobe Illustrator 24.0.1, SVG Export Plug-In . SVG Version: 6.00 Build 0)  -->
<svg version="1.1" id="Layer_1" xmlns="http://www.w3.org/2000/svg" xmlns:xlink="http://www.w3.org/1999/xlink" x="0px" y="0px"
	 viewBox="0 0 1000 1000" style="enable-background:new 0 0 1000 1000;" xml:space="preserve">
<style type="text/css">
	.st0{display:none;fill:#6383F0;}
	.st1{fill:#6383F0;}
</style>
<rect x="629" y="-153" class="st0" width="1920" height="1080"/>
<g id="XMLID_1099_">
	<path id="XMLID_1103_" class="st1" d="M374.06,464.66c-13.41,10.33-15.95,29.56-5.64,43.01c10.33,13.43,29.57,15.97,43.01,5.64
		c9.4-7.22,34.37-26.38,30.71-60.69c-2.26-20.38-22.14-48.36-38.44-68.26c-23.85-29.07-44.02-46.3-59.88-51.15
		c-14.85-4.6-30.07-3.88-45.23,2.17c-31.23,12.48-53.26,33.14-63.74,59.78c-10.18,25.94-8.33,54.97,5.39,83.97
		c31.98,67.56,74.77,125.91,127.11,173.45c0.22,0.19,0.43,0.36,0.65,0.55c53.09,46.94,115.91,83.12,186.74,107.51
		c13.44,4.62,26.64,6.92,39.29,6.92c15.93,0,31.01-3.63,44.75-10.86c25.32-13.35,43.42-37.52,52.39-69.98
		c4.32-15.73,3.36-30.92-2.81-45.08c-6.63-15.31-25.96-33.46-57.5-53.95C609.31,573.68,579.32,557,558.73,557h-0.04
		c-34.38,0.16-50.71,27.07-56.84,37.23c-8.77,14.49-4.15,33.36,10.35,42.13c14.46,8.77,33.33,4.13,42.1-10.35
		c2.43-4.01,3.97-6.13,4.95-7.25c17.31,5.03,63.65,35.34,73.13,48.09c0.17,0.68,0.19,1.7-0.32,3.58
		c-3.03,10.93-9.28,25.36-21.87,32.01c-11.78,6.2-25.81,3.52-35.47,0.22c-63.04-21.72-118.79-53.75-165.8-95.2
		c0,0-0.02-0.02-0.02-0.04c-46.54-42.14-84.64-94.13-113.24-154.5c-4.37-9.29-8.58-22.94-3.7-35.31
		c5.19-13.25,18.85-21.06,29.37-25.26c1.81-0.73,2.81-0.83,3.55-0.73c13.74,8.03,48.94,50.7,55.86,67.36
		C379.73,460.06,377.79,461.8,374.06,464.66L374.06,464.66z M374.06,464.66"/>
	<g id="XMLID_1100_">
		<path id="XMLID_798_" class="st1" d="M730.17,499.54c14.99-2.64,28.7-5.06,42.39-7.48c-27.45-153.64-154.73-248.22-269.47-260.1
			c-1.88,13.5-3.76,27.03-5.84,41.94c59.93,9.22,110.83,34.09,153.38,75.41C693.1,390.54,719.06,440.85,730.17,499.54z"/>
		<path id="XMLID_757_" class="st1" d="M618.27,506.81c13.56-2.35,27.24-4.72,40.87-7.08c-9.77-78.25-84.65-150.73-161.6-156.49
			c-1.92,13.39-3.86,26.85-5.89,40.93C570.76,408.79,589.89,427.37,618.27,506.81z"/>
	</g>
</g>
</svg>
