<?xml version="1.0" encoding="utf-8"?>
<!-- Generator: Adobe Illustrator 24.0.1, SVG Export Plug-In . SVG Version: 6.00 Build 0)  -->
<svg version="1.1" id="Layer_1" xmlns="http://www.w3.org/2000/svg" xmlns:xlink="http://www.w3.org/1999/xlink" x="0px" y="0px"
	 viewBox="0 0 1000 1000" style="enable-background:new 0 0 1000 1000;" xml:space="preserve">
<style type="text/css">
	.st0{display:none;fill:#6383F0;}
	.st1{fill:#6383F0;}
</style>
<rect x="629" y="-153" class="st0" width="1920" height="1080"/>
<g id="XMLID_1066_">
	<path id="XMLID_1075_" class="st1" d="M401.91,353.53c-0.45-0.12-0.9-0.25-1.35-0.37c-3.69,5.84-7.25,11.77-11.12,17.49
		c-3.18,4.7-4.39,9.62-4.35,15.37c0.23,33.32,0.1,66.64,0.12,99.96c0.03,59.26-0.19,118.52,0.23,177.77
		c0.19,26.43,22.25,48.28,48.61,48.42c59.89,0.3,119.78,0.2,179.67-0.06c6.37-0.03,12.72-2.2,19.08-3.38
		c-11.12-9.7-16.61-20.14-14.75-33.85c1.82-13.43,10.51-22.47,20.4-30.74c-0.16-0.55-0.33-1.11-0.49-1.66
		c-78.54,0-157.08,0-236.04,0C401.91,545.28,401.91,449.4,401.91,353.53z M672.79,458.23c0,3.09-0.19,5.61,0.04,8.08
		c0.62,6.75-1.18,12.41-5.16,18.15c-4.37,6.3-7.94,13.46-10.36,20.75c-4.83,14.55-0.56,25.61,11.6,33.34
		c5.88,3.74,5.39,14.39-0.74,17.76c-17.04,9.38-30.3,22.7-39.76,39.6c-5.45,9.74-5.51,19.68,1.32,29.14
		c6.43,8.9,15.52,11.91,25.63,9.81c21.35-4.42,39.03-15.43,52.42-32.74c9.17-11.86,10.03-25,2.62-37.84
		c-4.43-7.69-10.66-14.35-15.46-20.66c4.67-3.56,10.54-7.01,15.1-11.72c14.78-15.28,17.3-37.04,6.02-51.85
		C705.45,466.12,690.24,460.74,672.79,458.23z M659.4,705.12c12.2-1.44,24.73-4.32,33.91-9.14c14.24-7.47,20.61-24.3,15.91-42.03
		c-3.15-11.9-17.74-21.47-32.21-20.7c-1.84,0.1-3.64,2.35-5.32,3.76c-1.8,1.52-3.17,4.09-5.19,4.73
		c-14.87,4.69-27.99,11.66-35.84,25.92c-6.66,12.12-3.54,24.98,8.61,31.34C645.37,702.21,652.65,703.16,659.4,705.12z
		 M676.88,405.65c9.15-7.95,17.13-14.43,24.53-21.51c3.26-3.12,5.86-7.23,7.85-11.33c4.3-8.85,4.04-17.89-2.73-25.36
		c-7.83-8.66-18.28-10.08-29.66-8.91C676.88,360.51,676.88,381.94,676.88,405.65z M662.29,547.89
		c-5.75-7.03-10.94-13.38-15.61-19.09c0,9.04,0,19.11,0,29.75c3.14-2.2,5.67-4,8.24-5.75C657.48,551.07,660.06,549.38,662.29,547.89
		z"/>
	<path id="XMLID_567_" class="st1" d="M277.77,708.74c3.68-11.34,11.06-20.37,17.7-30.04c11.39-16.59,13.29-35.71,9.58-55.12
		c-2.92-15.26-8.57-30.12-10.27-45.46c-2.39-21.68-3.46-43.67-2.88-65.47c0.78-29.03,3.91-57.99,5.61-87.01
		c1.04-17.66,1.77-35.38,1.73-53.07c-0.03-13.39,3.63-24.98,11.2-36.02c17.37-25.35,34.15-51.12,51.16-76.72
		c6.14-9.24,10.31-10.67,21.02-7.12c13.52,4.48,19.79,15.07,22.83,27.96c5.6,23.78-0.21,45.39-13.23,65.48
		c-4.23,6.54-8.15,13.3-12.65,19.64c-6.2,8.73-8.39,18.02-8.35,28.89c0.39,88.37,0.2,176.75,0.23,265.13
		c0.01,32.77,20.71,58.24,52.68,64.74c4.08,0.83,8.38,0.86,12.57,0.87c51.89,0.05,103.77,0.04,155.66,0.04c2.3,0,4.6,0,7.62,0
		c-0.6,1.15-0.79,1.91-1.27,2.35c-25.34,23.65-53.35,42.44-88.35,48.49c-0.62,0.11-1.25,0.53-1.83,0.46
		c-12.25-1.5-18.95,6.05-25.54,14.75c-8.51,11.25-17.78,21.92-26.76,32.81c-9.39,11.38-19.81,12.94-32.24,4.67
		c-30.3-20.16-60.54-40.4-90.81-60.6c-9.62-6.42-19.22-12.89-28.91-19.21c-11.36-7.41-22.12-15.32-26.53-29.04
		C277.77,716.34,277.77,712.54,277.77,708.74z"/>
	<path id="XMLID_566_" class="st1" d="M622.05,186c4.21,1.67,8.56,3.05,12.6,5.07c18.44,9.26,28.34,24.48,28.42,44.94
		c0.3,77.63,0.13,155.26,0.09,232.89c0,1.85-0.05,3.97-0.9,5.51c-5.24,9.46-10.72,18.78-16.01,27.96c0-86.38,0-173.35,0-260.81
		c-81.57,0-162.63,0-244.1,0c-0.19,2.75-0.38,5.41-0.57,8.18c-4.83-2.42-9.75-4.57-14.27-7.37c-1.3-0.8-1.99-3.49-2-5.33
		c-0.19-23.72,14.2-42.72,37.34-49.61c1.12-0.33,2.16-0.94,3.23-1.43C491.26,186,556.65,186,622.05,186z"/>
	<path id="XMLID_1071_" class="st1" d="M401.91,353.53c0,95.87,0,191.75,0,288.96c78.96,0,157.5,0,236.04,0
		c0.16,0.55,0.33,1.11,0.49,1.66c-9.88,8.27-18.58,17.31-20.4,30.74c-1.86,13.71,3.62,24.16,14.75,33.85
		c-6.36,1.18-12.72,3.35-19.08,3.38c-59.89,0.26-119.78,0.36-179.67,0.06c-26.35-0.13-48.42-21.99-48.61-48.42
		c-0.42-59.25-0.2-118.51-0.23-177.77c-0.02-33.32,0.12-66.64-0.12-99.96c-0.04-5.75,1.17-10.66,4.35-15.37
		c3.87-5.72,7.43-11.65,11.12-17.49C401.01,353.28,401.46,353.41,401.91,353.53z"/>
	<path id="XMLID_562_" class="st1" d="M672.79,458.23c17.45,2.51,32.66,7.89,43.27,21.83c11.27,14.8,8.76,36.57-6.02,51.85
		c-4.56,4.71-10.43,8.16-15.1,11.72c4.8,6.31,11.02,12.97,15.46,20.66c7.4,12.83,6.55,25.97-2.62,37.84
		c-13.39,17.31-31.07,28.32-52.42,32.74c-10.11,2.09-19.2-0.91-25.63-9.81c-6.83-9.46-6.78-19.41-1.32-29.14
		c9.46-16.9,22.72-30.21,39.76-39.6c6.12-3.37,6.62-14.02,0.74-17.76c-12.15-7.73-16.43-18.79-11.6-33.34
		c2.42-7.29,5.99-14.45,10.36-20.75c3.99-5.74,5.78-11.4,5.16-18.15C672.6,463.84,672.79,461.32,672.79,458.23z"/>
	<path id="XMLID_561_" class="st1" d="M659.4,705.12c-6.75-1.97-14.03-2.91-20.14-6.11c-12.15-6.37-15.27-19.23-8.61-31.34
		c7.84-14.27,20.96-21.24,35.84-25.92c2.02-0.64,3.39-3.21,5.19-4.73c1.68-1.42,3.48-3.67,5.32-3.76
		c14.48-0.77,29.06,8.81,32.21,20.7c4.7,17.74-1.67,34.56-15.91,42.03C684.13,700.8,671.6,703.68,659.4,705.12z"/>
	<path id="XMLID_559_" class="st1" d="M676.88,405.65c0-23.71,0-45.14,0-67.11c11.37-1.17,21.82,0.24,29.66,8.91
		c6.76,7.48,7.03,16.51,2.73,25.36c-1.99,4.1-4.59,8.2-7.85,11.33C694.02,391.22,686.04,397.7,676.88,405.65z"/>
	<path id="XMLID_558_" class="st1" d="M662.29,547.89c-2.23,1.49-4.82,3.17-7.37,4.91c-2.57,1.75-5.09,3.55-8.24,5.75
		c0-10.65,0-20.71,0-29.75C651.35,534.51,656.55,540.86,662.29,547.89z"/>
</g>
</svg>
