<?xml version="1.0" encoding="utf-8"?>
<!-- Generator: Adobe Illustrator 24.0.1, SVG Export Plug-In . SVG Version: 6.00 Build 0)  -->
<svg version="1.1" id="Layer_1" xmlns="http://www.w3.org/2000/svg" xmlns:xlink="http://www.w3.org/1999/xlink" x="0px" y="0px"
	 viewBox="0 0 1000 1000" style="enable-background:new 0 0 1000 1000;" xml:space="preserve">
<style type="text/css">
	.st0{display:none;fill:#6383F0;}
	.st1{fill:none;stroke:#4C4D4D;stroke-width:3;stroke-miterlimit:10;}
	.st2{fill:#F1F2F2;stroke:#231F20;stroke-width:3;stroke-miterlimit:10;}
</style>
<rect x="629" y="-153" class="st0" width="1920" height="1080"/>
<g>
	<path class="st1" d="M853.36,592.37H192.42c-18.68,0-33.96-15.28-33.96-33.96l0-91.87c0-18.68,15.28-33.96,33.96-33.96h660.95
		c18.68,0,33.96,15.28,33.96,33.96v91.87C887.32,577.09,872.04,592.37,853.36,592.37z"/>
	<path class="st2" d="M839.08,566.79H178.13c-18.68,0-33.96-15.28-33.96-33.96v-91.87c0-18.68,15.28-33.96,33.96-33.96h660.95
		c18.68,0,33.96,15.28,33.96,33.96v91.87C873.03,551.51,857.75,566.79,839.08,566.79z"/>
</g>
</svg>
