<?xml version="1.0" encoding="utf-8"?>
<!-- Generator: Adobe Illustrator 24.0.1, SVG Export Plug-In . SVG Version: 6.00 Build 0)  -->
<svg version="1.1" id="Layer_1" xmlns="http://www.w3.org/2000/svg" xmlns:xlink="http://www.w3.org/1999/xlink" x="0px" y="0px"
	 viewBox="0 0 1000 1000" style="enable-background:new 0 0 1000 1000;" xml:space="preserve">
<style type="text/css">
	.st0{display:none;fill:#6383F0;}
	.st1{fill:#6383F0;}
</style>
<rect x="629" y="-153" class="st0" width="1920" height="1080"/>
<g id="XMLID_483_">
	<g id="XMLID_484_">
		<path id="XMLID_485_" class="st1" d="M703.44,748.59H594.03c-18.69,0-33.9-15.21-33.9-33.9V569.66h-82.69v145.04
			c0,18.69-15.22,33.9-33.91,33.9H334.84c-14.6,0-26.49-11.9-26.49-26.48V470.65h-24.99c-8.97,0-16.83-5.7-19.48-14.16
			c-2.65-8.3,0.44-17.31,7.63-22.4L509.8,243.54h17.92l65.83,52.32v-15.65c0-10.79,8.41-19.25,19.19-19.25h66.76
			c10.78,0,19.25,8.46,19.25,19.25v99.78l68.65,54.6c6.81,5.57,9.28,14.6,6.46,22.56c-2.98,8.18-10.68,13.5-19.64,13.5h-24.28
			v251.46C729.94,736.69,718.04,748.59,703.44,748.59z M306.52,442.33h30.15v279.78l106.86-1.83c3.1,0,5.58-2.49,5.58-5.58v-148.3
			c0-13.33,11.39-25.05,24.34-25.05h90.71c13.4,0,24.29,11.24,24.29,25.05v148.3c0,3.09,2.49,5.58,5.58,5.58h107.59V442.33h30.03
			l-61.23-48.63V289.28h-48.56v65.22l-103.05-81.87L306.52,442.33z"/>
	</g>
</g>
</svg>
