<?xml version="1.0" encoding="utf-8"?>
<!-- Generator: Adobe Illustrator 24.0.1, SVG Export Plug-In . SVG Version: 6.00 Build 0)  -->
<svg version="1.1" id="Layer_1" xmlns="http://www.w3.org/2000/svg" xmlns:xlink="http://www.w3.org/1999/xlink" x="0px" y="0px"
	 viewBox="0 0 1000 1000" style="enable-background:new 0 0 1000 1000;" xml:space="preserve">
<style type="text/css">
	.st0{display:none;fill:#6383F0;}
	.st1{fill:#6383F0;}
</style>
<rect x="629" y="-153" class="st0" width="1920" height="1080"/>
<g id="XMLID_165_">
	<path id="XMLID_174_" class="st1" d="M498.93,166c-185.05,0-334.81,149.75-334.81,334.81c0,183.68,148.4,337.43,334.81,337.43
		c184.66,0,337.42-152.19,337.42-337.43C836.36,314.19,682.41,166,498.93,166L498.93,166z M498.93,799.11
		c-162.89,0-295.68-133.96-295.68-298.3c0-162.89,132.79-295.67,295.68-295.67c164.33,0,298.3,132.79,298.3,295.67
		C797.23,665.14,663.27,799.11,498.93,799.11L498.93,799.11z M498.93,799.11"/>
	<path id="XMLID_170_" class="st1" d="M498.93,284.17c-119.45,0-216.64,97.18-216.64,216.64c0,119.9,96.98,219.26,216.64,219.26
		c48.41,0,97.39-16.27,134.36-44.64c8.63-6.62,10.26-18.98,3.64-27.61c-6.62-8.63-18.98-10.26-27.61-3.64
		c-30.24,23.2-70.48,36.76-110.39,36.76c-97.74,0-177.25-80.95-177.25-180.13c0-97.73,79.51-177.51,177.25-177.51
		c99.18,0,179.87,79.78,179.87,177.51v19.69c0,21.72-17.67,39.39-39.39,39.39c-21.72,0-39.39-17.67-39.39-39.39
		c0-9.76,0-88.18,0-98.47c0-10.88-8.82-19.69-19.69-19.69c-10.88,0-19.69,8.81-19.69,19.69v1.25
		c-17.79-13.57-39.3-20.94-61.71-20.94c-54.3,0-98.48,44.17-98.48,98.47s44.17,98.47,98.48,98.47c29.43,0,56.53-12.63,75.8-33.89
		c14.24,20.46,37.92,33.89,64.68,33.89c43.43,0,78.78-35.34,78.78-78.78v-19.69C718.19,380.99,618.68,284.17,498.93,284.17
		L498.93,284.17z M498.93,560.15c-32.58,0-59.09-26.77-59.09-59.34c0-32.58,26.5-59.34,59.09-59.34c33.45,0,61.71,27.32,61.71,59.34
		S532.38,560.15,498.93,560.15L498.93,560.15z M498.93,560.15"/>
</g>
</svg>
