<?xml version="1.0" encoding="utf-8"?>
<!-- Generator: Adobe Illustrator 24.0.1, SVG Export Plug-In . SVG Version: 6.00 Build 0)  -->
<svg version="1.1" id="Layer_1" xmlns="http://www.w3.org/2000/svg" xmlns:xlink="http://www.w3.org/1999/xlink" x="0px" y="0px"
	 viewBox="0 0 1000 1000" style="enable-background:new 0 0 1000 1000;" xml:space="preserve">
<style type="text/css">
	.st0{display:none;fill:#6383F0;}
	.st1{fill:#6383F0;}
</style>
<rect x="629" y="-153" class="st0" width="1920" height="1080"/>
<g id="XMLID_364_">
	<path id="XMLID_401_" class="st1" d="M499.85,168c-106.53,0-193.21,86.68-193.21,193.21c0,137.82,164.19,283.33,171.18,289.45
		c6.31,5.56,14.17,8.29,22.03,8.29c8.38,0,16.76-3.14,23.23-9.39c17.4-16.78,169.98-167.57,169.98-288.35
		C693.07,254.68,606.39,168,499.85,168z M498.92,578.62c-48.6-48.77-125.39-141.86-125.39-217.4c0-69.65,56.67-126.32,126.32-126.32
		s126.32,56.67,126.32,126.32C626.18,428.03,547.86,526.14,498.92,578.62z M634.27,768.04c0,18.46-14.97,33.43-33.44,33.43H398.85
		c-18.47,0-33.45-14.97-33.45-33.43c0-18.47,14.98-33.45,33.45-33.45h201.98C619.3,734.59,634.27,749.57,634.27,768.04z
		 M523.52,337.4c6.22,6.25,9.79,14.71,9.79,23.62c0,8.92-3.57,17.85-9.79,23.65c-6.26,6.25-14.72,9.79-23.65,9.79
		c-4.47,0-8.91-0.89-12.93-2.22c-4-1.78-7.57-4.46-10.69-7.57c-6.25-5.79-9.82-14.72-9.82-23.65c0-8.91,3.57-17.38,9.82-23.62
		c3.11-3.12,6.69-5.35,10.69-7.14c8.47-3.11,17.4-3.57,25.87,0C516.81,332.04,520.38,334.28,523.52,337.4z"/>
</g>
</svg>
