<?xml version="1.0" encoding="utf-8"?>
<!-- Generator: Adobe Illustrator 24.0.1, SVG Export Plug-In . SVG Version: 6.00 Build 0)  -->
<svg version="1.1" id="Layer_1" xmlns="http://www.w3.org/2000/svg" xmlns:xlink="http://www.w3.org/1999/xlink" x="0px" y="0px"
	 viewBox="0 0 1000 1000" style="enable-background:new 0 0 1000 1000;" xml:space="preserve">
<style type="text/css">
	.st0{display:none;fill:#6383F0;}
	.st1{fill-rule:evenodd;clip-rule:evenodd;fill:#6383F0;}
</style>
<rect x="629" y="-153" class="st0" width="1920" height="1080"/>
<g id="XMLID_851_">
	<path id="XMLID_853_" class="st1" d="M766,202.94L766,202.94c68.54,61.77,74.09,168.39,12.32,236.94l-85.05,94.38
		c-10.88,12.07-29.6,13.05-41.67,2.17l-0.58-0.53c-12.07-10.88-13.04-29.6-2.17-41.67l85.05-94.38
		c39.75-44.11,36.18-112.73-7.93-152.48l0,0c-44.11-39.75-112.73-36.18-152.48,7.93l-85.05,94.38
		c-10.88,12.07-29.6,13.05-41.67,2.17l-0.58-0.53c-12.07-10.88-13.05-29.6-2.17-41.67l85.05-94.38
		C590.83,146.71,697.45,141.17,766,202.94L766,202.94z M587.05,652.13L502,746.51c-61.77,68.54-168.39,74.09-236.94,12.32l0,0
		c-68.54-61.77-74.09-168.39-12.32-236.93l85.05-94.38c10.88-12.07,29.6-13.05,41.67-2.17l0.58,0.53
		c12.07,10.88,13.05,29.6,2.17,41.67l-85.05,94.38c-39.75,44.11-36.18,112.73,7.93,152.48l0,0c44.11,39.75,112.73,36.18,152.48-7.93
		l85.05-94.38c10.88-12.07,29.6-13.04,41.67-2.16l0.58,0.53C596.96,621.33,597.93,640.05,587.05,652.13L587.05,652.13z"/>
	<path id="XMLID_603_" class="st1" d="M651.19,330.34L651.19,330.34c12.22,11.01,13.2,30.01,2.19,42.23L422.1,629.23
		c-11.01,12.22-30.01,13.2-42.23,2.2l0,0c-12.21-11.01-13.2-30.01-2.19-42.23l231.29-256.66
		C619.97,320.32,638.98,319.33,651.19,330.34L651.19,330.34z"/>
</g>
</svg>
