<?xml version="1.0" encoding="utf-8"?>
<!-- Generator: Adobe Illustrator 24.0.1, SVG Export Plug-In . SVG Version: 6.00 Build 0)  -->
<svg version="1.1" id="Layer_1" xmlns="http://www.w3.org/2000/svg" xmlns:xlink="http://www.w3.org/1999/xlink" x="0px" y="0px"
	 viewBox="0 0 1000 1000" style="enable-background:new 0 0 1000 1000;" xml:space="preserve">
<style type="text/css">
	.st0{display:none;fill:#6383F0;}
	.st1{fill:#6383F0;}
</style>
<rect x="629" y="-153" class="st0" width="1920" height="1080"/>
<g id="XMLID_321_">
	<path id="XMLID_355_" class="st1" d="M791.63,277.62c0-47.76-38.83-86.62-86.55-86.62c-47.72,0-86.55,38.86-86.55,86.62v1.9
		c0,23.6,12.44,49.87,36.99,78.08c16.69,19.18,33.32,32.7,34.02,33.26l15.55,12.58l15.55-12.58c0.7-0.57,17.33-14.09,34.02-33.26
		c24.54-28.21,36.98-54.48,36.98-78.08V277.62z M765,280.2c0,26.04-29.98,65.32-59.9,95.01c-29.61-29.5-59.94-69.19-59.94-95.01
		v-3.06c0-33.1,26.88-60.03,59.92-60.03c33.04,0,59.92,26.93,59.92,60.03V280.2z"/>
	<path id="XMLID_354_" class="st1" d="M791.63,589.14c13.66,0,24.73,11.07,24.73,24.73c0,13.66-11.07,24.73-24.73,24.73
		s-24.73-11.07-24.73-24.73C766.9,600.21,777.97,589.14,791.63,589.14z"/>
	<path id="XMLID_353_" class="st1" d="M791.63,674.46c13.66,0,24.73,11.07,24.73,24.73c0,13.66-11.07,24.73-24.73,24.73
		s-24.73-11.07-24.73-24.73C766.9,685.53,777.97,674.46,791.63,674.46z"/>
	<circle id="XMLID_352_" class="st1" cx="791.63" cy="784.5" r="24.73"/>
	<path id="XMLID_351_" class="st1" d="M618.53,418.51c13.66,0,24.73,11.07,24.73,24.73c0,13.66-11.07,24.73-24.73,24.73
		c-13.66,0-24.73-11.07-24.73-24.73C593.8,429.58,604.87,418.51,618.53,418.51z"/>
	<path id="XMLID_350_" class="st1" d="M705.08,589.14c13.66,0,24.73,11.07,24.73,24.73c0,13.66-11.07,24.73-24.73,24.73
		c-13.66,0-24.73-11.07-24.73-24.73C680.35,600.21,691.42,589.14,705.08,589.14z"/>
	<path id="XMLID_349_" class="st1" d="M705.08,418.51c13.66,0,24.73,11.07,24.73,24.73c0,13.66-11.07,24.73-24.73,24.73
		c-13.66,0-24.73-11.07-24.73-24.73C680.35,429.58,691.42,418.51,705.08,418.51z"/>
	<path id="XMLID_348_" class="st1" d="M618.53,589.14c13.66,0,24.73,11.07,24.73,24.73c0,13.66-11.07,24.73-24.73,24.73
		c-13.66,0-24.73-11.07-24.73-24.73C593.8,600.21,604.87,589.14,618.53,589.14z"/>
	<path id="XMLID_347_" class="st1" d="M618.53,503.82c13.66,0,24.73,11.07,24.73,24.73c0,13.66-11.07,24.73-24.73,24.73
		c-13.66,0-24.73-11.07-24.73-24.73C593.8,514.89,604.87,503.82,618.53,503.82z"/>
	<path id="XMLID_346_" class="st1" d="M705.08,759.77c13.66,0,24.73,11.07,24.73,24.73s-11.07,24.73-24.73,24.73
		c-13.66,0-24.73-11.07-24.73-24.73S691.42,759.77,705.08,759.77z"/>
	<path id="XMLID_345_" class="st1" d="M618.53,759.77c13.66,0,24.73,11.07,24.73,24.73s-11.07,24.73-24.73,24.73
		c-13.66,0-24.73-11.07-24.73-24.73S604.87,759.77,618.53,759.77z"/>
	<path id="XMLID_344_" class="st1" d="M531.97,759.77c13.66,0,24.73,11.07,24.73,24.73s-11.07,24.73-24.73,24.73
		c-13.66,0-24.73-11.07-24.73-24.73S518.32,759.77,531.97,759.77z"/>
	<circle id="XMLID_343_" class="st1" cx="445.42" cy="784.5" r="24.73"/>
	<path id="XMLID_342_" class="st1" d="M358.87,759.77c13.66,0,24.73,11.07,24.73,24.73s-11.07,24.73-24.73,24.73
		c-13.66,0-24.73-11.07-24.73-24.73S345.21,759.77,358.87,759.77z"/>
	<path id="XMLID_341_" class="st1" d="M358.87,674.46c13.66,0,24.73,11.07,24.73,24.73c0,13.66-11.07,24.73-24.73,24.73
		c-13.66,0-24.73-11.07-24.73-24.73C334.14,685.53,345.21,674.46,358.87,674.46z"/>
	<g id="XMLID_323_">
		<path id="XMLID_329_" class="st1" d="M351.07,195.79c-91.78,0-166.44,74.68-166.44,166.46c0,65.59,27.46,131.93,79.4,191.86
			c38.8,44.76,77.26,70.12,78.87,71.17c2.48,1.63,5.33,2.44,8.17,2.44c2.84,0,5.69-0.81,8.16-2.44
			c1.62-1.05,40.08-26.41,78.88-71.17c51.95-59.93,79.41-126.27,79.41-191.86C517.52,270.47,442.85,195.79,351.07,195.79
			L351.07,195.79z M351.07,594.48c-30.61-22.82-136.6-110.6-136.6-232.23c0-75.33,61.28-136.62,136.6-136.62
			c75.33,0,136.61,61.29,136.61,136.62C487.68,483.88,381.68,571.66,351.07,594.48L351.07,594.48z M351.07,594.48"/>
		<path id="XMLID_324_" class="st1" d="M351.08,296.15c-36.43,0-66.07,29.64-66.07,66.07c0,36.42,29.64,66.06,66.07,66.06
			c36.42,0,66.06-29.63,66.06-66.06S387.5,296.15,351.08,296.15L351.08,296.15z M351.08,398.43c-19.98,0-36.22-16.25-36.22-36.22
			c0-19.98,16.25-36.22,36.22-36.22c19.97,0,36.21,16.25,36.21,36.22C387.29,382.19,371.04,398.43,351.08,398.43L351.08,398.43z
			 M351.08,398.43"/>
	</g>
</g>
</svg>
