<?xml version="1.0" encoding="utf-8"?>
<!-- Generator: Adobe Illustrator 24.0.1, SVG Export Plug-In . SVG Version: 6.00 Build 0)  -->
<svg version="1.1" id="Layer_1" xmlns="http://www.w3.org/2000/svg" xmlns:xlink="http://www.w3.org/1999/xlink" x="0px" y="0px"
	 viewBox="0 0 1000 1000" style="enable-background:new 0 0 1000 1000;" xml:space="preserve">
<style type="text/css">
	.st0{display:none;fill:#6383F0;}
	.st1{fill:#6383F0;}
</style>
<rect x="629" y="-153" class="st0" width="1920" height="1080"/>
<g id="XMLID_1236_">
	<path id="XMLID_919_" class="st1" d="M576.14,419.8c-11.57,11.57-11.57,30.33,0,41.89c11.57,11.57,30.33,11.57,41.89,0l39.27-39.27
		c11.57-11.57,11.57-30.33,0-41.89c-11.57-11.57-30.32-11.57-41.89,0L576.14,419.8z"/>
	<path id="XMLID_918_" class="st1" d="M624.53,468.19c-11.57,11.57-11.57,30.33,0,41.89c11.57,11.57,30.33,11.57,41.89,0
		l39.27-39.27c11.57-11.57,11.57-30.33,0-41.89c-11.57-11.57-30.33-11.57-41.89,0L624.53,468.19z"/>
	<path id="XMLID_917_" class="st1" d="M779.41,559.49c-10.31-10.32-21.58-19.7-32.61-29.67l8.95-8.95
		c11.57-11.57,11.57-30.33,0-41.89c-11.57-11.57-30.33-11.57-41.89,0l-39.27,39.27c-11.57,11.57-11.57,30.33,0,41.89
		c11.57,11.57,30.33,11.57,41.89,0l14.8-14.8c5.34,5.72,8.41,9.01,11.05,11.83c-59.83,59.82-118.98,118.96-178.37,178.34
		c-0.44-0.27-1.77-0.8-2.7-1.73c-56.62-56.54-113.27-113.05-169.59-169.89c-2.82-2.84-4.06-8.85-3.53-13.09
		c1.94-15.55,5.83-30.89,7.32-46.48c2.18-22.88,4.15-45.93,3.8-68.87c-0.2-13.63-10.21-22.87-23.86-25.19
		c-14.13-2.4-22.27,6.89-27.96,18.2c-2.87,5.72-4.57,12.06-6.43,18.23c-5.01,16.55-9.82,33.16-14.5,49.07
		c-14.48-14.35-28.46-28.21-40.83-40.49c58.5-58.62,117.84-118.08,175.32-175.68c24.97,24.92,52.02,51.91,78.22,78.06l-12.6,12.6
		c-11.57,11.57-11.57,30.33,0,41.89c11.57,11.57,30.32,11.57,41.89,0l39.28-39.27c11.57-11.57,11.57-30.33,0-41.89
		c-11.57-11.57-30.33-11.57-41.9,0l-7.09,7.09c-3.57-3.34-7.75-7.21-10.56-10.02c-27.18-27.12-54.21-54.37-81.51-81.36
		c-18.44-18.23-37.4-18.34-55.91,0.07C358,299.27,305.34,351.93,252.85,404.75c-17.84,17.95-17.49,37.73,0.45,55.99
		c18.8,19.13,37.64,38.25,57.01,56.81c6.2,5.94,7.49,11.34,5.14,19.42c-9.83,33.65-19.78,67.3-28.16,101.33
		c-3.12,12.68-4.09,26.62-2.54,39.58c4.94,41.43,29.54,71.83,59.37,98.59c53.51,48,120.35,46.21,171.27-4.47
		c8.04-8,15.52-16.57,24.68-26.4c9.78,10.54,17.29,19.34,25.53,27.39c17.96,17.54,37.08,17.83,54.81,0.22
		c53.16-52.8,106.12-105.8,158.93-158.96C796.85,596.61,796.83,576.94,779.41,559.49z"/>
</g>
</svg>
