<?xml version="1.0" encoding="utf-8"?>
<!-- Generator: Adobe Illustrator 24.0.1, SVG Export Plug-In . SVG Version: 6.00 Build 0)  -->
<svg version="1.1" id="Layer_1" xmlns="http://www.w3.org/2000/svg" xmlns:xlink="http://www.w3.org/1999/xlink" x="0px" y="0px"
	 viewBox="0 0 1000 1000" style="enable-background:new 0 0 1000 1000;" xml:space="preserve">
<style type="text/css">
	.st0{display:none;fill:#fff;}
	.st1{fill:#fff;}
</style>
<rect x="629" y="-153" class="st0" width="1920" height="1080"/>
<path id="XMLID_1006_" class="st1" d="M730.52,291.84c-56.41-56.41-131.42-87.48-211.19-87.48c-79.78,0-154.78,31.07-211.19,87.48
	c-56.41,56.41-87.48,131.41-87.48,211.19c0,69.4,24.34,137.02,68.53,190.38c43.61,52.66,104.34,89.04,170.99,102.43
	c0.62,0.12,1.24,0.18,1.85,0.18c4.35,0,8.25-3.06,9.14-7.5c1.02-5.05-2.26-9.97-7.31-10.99
	c-130.11-26.14-224.54-141.59-224.54-274.51c0-154.39,125.61-280,280-280c154.39,0,280,125.61,280,280
	c0,102.33-55.81,196.49-145.64,245.72c-0.06,0.03-0.12,0.07-0.18,0.1c-66.1,38.16-141.43,21.8-201.5-43.77
	c-17.77-19.39-17.12-49.15,1.48-67.75l16.87-16.87c41.57,32.37,89.31,55.49,140.25,67.64c4.81,1.15,9.63,1.71,14.37,1.71
	c20.16,0,38.95-10.1,50.28-27.83l25.99-40.68c4.86-7.61,6.02-16.85,3.19-25.36c-2.84-8.51-9.31-15.21-17.76-18.38l-77.72-29.16
	c-9.02-3.39-18.45-2.37-26.54,2.87l-26.17,16.95c-3.75,2.43-8.07,2.45-11.85,0.06c-18.13-11.47-35.06-25.03-50.33-40.33
	c0,0-0.01-0.01-0.01-0.01c-15.3-15.27-28.87-32.21-40.33-50.33c-2.39-3.78-2.37-8.1,0.07-11.85l16.95-26.18
	c5.24-8.09,6.26-17.52,2.87-26.54l-29.16-77.72c-3.17-8.45-9.87-14.92-18.38-17.76c-8.51-2.84-17.75-1.68-25.36,3.18l-40.68,25.99
	c-21.9,14-32.16,39.37-26.13,64.65c15.89,66.6,50.48,127.71,99.97,176.67c7.08,7.15,14.41,13.98,21.98,20.5l-15.56,15.56
	c-25.68,25.68-26.58,66.78-2.05,93.56c32.82,35.82,71.15,58.94,110.87,66.87c38.8,7.75,78.09,1,113.64-19.49
	C758.52,712.55,818,612.15,818,503.03C818,423.26,786.93,348.26,730.52,291.84L730.52,291.84z M352.07,407.07
	c-4.16-17.43,2.91-34.94,18.02-44.59l40.68-25.99c1.82-1.17,3.89-1.76,5.97-1.76c1.15,0,2.31,0.19,3.44,0.56
	c3.14,1.05,5.62,3.45,6.8,6.61l29.16,77.72c1.29,3.44,0.93,6.75-1.06,9.84l-16.95,26.17c-6.36,9.83-6.43,22.08-0.17,31.98
	c12.2,19.3,26.64,37.31,42.91,53.56c16.24,16.27,34.26,30.71,53.56,42.91c9.89,6.25,22.15,6.19,31.97-0.18l26.17-16.95
	c3.09-2,6.4-2.36,9.84-1.06l77.72,29.16c3.15,1.18,5.56,3.66,6.61,6.8c1.05,3.14,0.61,6.57-1.2,9.41l-25.99,40.68
	c-9.65,15.11-27.15,22.18-44.59,18.02c-63.2-15.08-121.23-47.94-167.87-95.08C400.01,528.3,367.15,470.27,352.07,407.07
	L352.07,407.07z"/>
</svg>
