<?xml version="1.0" encoding="utf-8"?>
<!-- Generator: Adobe Illustrator 24.0.1, SVG Export Plug-In . SVG Version: 6.00 Build 0)  -->
<svg version="1.1" id="Layer_1" xmlns="http://www.w3.org/2000/svg" xmlns:xlink="http://www.w3.org/1999/xlink" x="0px" y="0px"
	 viewBox="0 0 1000 1000" style="enable-background:new 0 0 1000 1000;" xml:space="preserve">
<style type="text/css">
	.st0{display:none;fill:#6383F0;}
	.st1{fill:#6383F0;}
</style>
<rect x="629" y="-153" class="st0" width="1920" height="1080"/>
<path id="XMLID_378_" class="st1" d="M499.57,242c-147.78,0-268.04,120.27-268.04,268.11c0,147.77,120.26,268.04,268.04,268.04
	c147.84,0,268.1-120.27,268.1-268.04C767.67,362.27,647.41,242,499.57,242z M546.71,737.96c-15.23,3.14-30.99,4.8-47.14,4.8
	c-16.13,0-31.88-1.66-47.1-4.8c-25.95-21.82-47.42-61.09-60.74-110.51c32.76,7.88,69.3,12.31,107.84,12.31
	c38.57,0,75.13-4.43,107.91-12.32C594.15,676.87,572.68,716.14,546.71,737.96z M499.57,632.73c-39.42,0-76.68-4.64-109.77-12.84
	c-8.2-33.09-12.84-70.35-12.84-109.77c0-39.44,4.65-76.73,12.86-109.85c33.09-8.2,70.34-12.84,109.76-12.84
	c39.44,0,76.72,4.64,109.82,12.85c8.21,33.11,12.85,70.4,12.85,109.83c0,39.41-4.64,76.67-12.84,109.76
	C576.3,628.08,539.01,632.73,499.57,632.73z M266.92,510.11c0-16.15,1.66-31.92,4.8-47.15c21.82-25.97,61.08-47.44,110.49-60.76
	c-7.89,32.77-12.32,69.34-12.32,107.91c0,38.54,4.43,75.08,12.31,107.84c-49.41-13.33-88.67-34.79-110.49-60.74
	C268.57,541.99,266.92,526.24,266.92,510.11z M452.49,282.18c15.21-3.14,30.96-4.79,47.08-4.79c16.14,0,31.9,1.66,47.12,4.8
	c25.97,21.83,47.44,61.1,60.77,110.52c-32.77-7.89-69.33-12.33-107.89-12.33c-38.54,0-75.08,4.43-107.83,12.32
	C405.07,343.28,426.54,304.01,452.49,282.18z M629.3,510.11c0-38.57-4.44-75.13-12.33-107.9c49.41,13.33,88.68,34.81,110.51,60.78
	c3.14,15.22,4.8,30.98,4.8,47.12c0,16.12-1.65,31.87-4.79,47.08c-21.82,25.95-61.09,47.42-110.51,60.75
	C624.87,585.19,629.3,548.65,629.3,510.11z M724.32,449.82c-24.4-23.65-62.68-42.99-109.27-55.2
	c-12.21-46.6-31.55-84.88-55.2-109.28C639.81,306.8,702.86,369.86,724.32,449.82z M439.29,285.35
	c-23.64,24.4-42.96,62.68-55.16,109.28c-46.58,12.21-84.85,31.55-109.25,55.2C296.33,369.87,359.37,306.82,439.29,285.35z
	 M274.88,570.38c24.4,23.64,62.67,42.96,109.25,55.16c12.2,46.59,31.53,84.86,55.17,109.27
	C359.38,713.34,296.34,650.3,274.88,570.38z M559.84,734.81c23.66-24.4,43-62.68,55.22-109.28c46.59-12.2,84.86-31.52,109.26-55.16
	C702.86,650.31,639.8,713.36,559.84,734.81z"/>
</svg>
