<?xml version="1.0" encoding="utf-8"?>
<!-- Generator: Adobe Illustrator 24.0.1, SVG Export Plug-In . SVG Version: 6.00 Build 0)  -->
<svg version="1.1" id="Layer_1" xmlns="http://www.w3.org/2000/svg" xmlns:xlink="http://www.w3.org/1999/xlink" x="0px" y="0px"
	 viewBox="0 0 1000 1000" style="enable-background:new 0 0 1000 1000;" xml:space="preserve">
<style type="text/css">
	.st0{display:none;fill:#6383F0;}
	.st1{fill:#6383F0;}
</style>
<rect x="629" y="-153" class="st0" width="1920" height="1080"/>
<g id="XMLID_888_">
	<path id="XMLID_668_" class="st1" d="M499.55,412.95c-8.92,0-20.42,15.76-27.51,42.89h55.02
		C519.97,428.71,508.46,412.95,499.55,412.95z"/>
	<path id="XMLID_667_" class="st1" d="M581.11,565.28h-31.25c-2.19,9.76-4.98,18.84-8.33,26.96c-1.35,3.26-2.77,6.34-4.27,9.21
		C555.18,593.94,570.43,581.26,581.11,565.28z"/>
	<path id="XMLID_666_" class="st1" d="M443.55,510.97c0-11.38,0.69-22.53,2.03-33.17H407.3c-3.74,10.36-5.78,21.53-5.78,33.17
		c0,11.33,1.93,22.22,5.49,32.35h38.46C444.2,532.92,443.55,522.06,443.55,510.97z"/>
	<path id="XMLID_665_" class="st1" d="M555.54,510.97c0,11.09-0.65,21.95-1.92,32.35h38.46c3.55-10.13,5.48-21.02,5.48-32.35
		c0-11.64-2.04-22.81-5.78-33.17h-38.27C554.85,488.44,555.54,499.59,555.54,510.97z"/>
	<path id="XMLID_664_" class="st1" d="M549.68,455.84h30.87c-10.65-15.6-25.67-27.97-43.3-35.34c1.5,2.88,2.93,5.94,4.27,9.21
		C544.79,437.59,547.52,446.38,549.68,455.84z"/>
	<rect id="XMLID_663_" x="366.43" y="623.57" class="st1" width="28.33" height="28.32"/>
	<path id="XMLID_662_" class="st1" d="M449.23,565.28h-31.25c10.68,15.98,25.92,28.67,43.86,36.17c-1.5-2.87-2.93-5.95-4.27-9.21
		C454.21,584.12,451.42,575.04,449.23,565.28z"/>
	<rect id="XMLID_661_" x="614.5" y="383.36" class="st1" width="28.32" height="28.33"/>
	<path id="XMLID_892_" class="st1" d="M554.9,246H444.29c-109.62,0-198.48,88.86-198.48,198.48v110.62
		c0,109.62,88.86,198.48,198.48,198.48H554.9c109.62,0,198.48-88.86,198.48-198.48V444.48C753.38,334.86,664.52,246,554.9,246z
		 M416.71,656.78c0,9.42-7.66,17.08-17.08,17.08h-38.09c-9.42,0-17.08-7.66-17.08-17.08v-38.09c0-0.79,0.05-1.57,0.16-2.33
		c-21.23-31.13-32.42-67.43-32.42-105.39c0-50.06,19.49-97.12,54.89-132.51c35.39-35.39,82.46-54.89,132.51-54.89
		c18.81,0,37.37,2.78,55.19,8.26c5.8,1.78,9.05,7.93,7.27,13.73c-1.78,5.8-7.93,9.05-13.73,7.27c-15.72-4.84-32.11-7.29-48.73-7.29
		c-44.19,0-85.74,17.21-116.98,48.46c-31.25,31.25-48.46,72.79-48.46,116.98c0,32.54,9.31,63.71,27.01,90.65
		c0.12,0,0.25-0.01,0.37-0.01h38.09c9.42,0,17.08,7.66,17.08,17.08V656.78z M379.57,510.97c0-17,3.55-33.18,9.95-47.84
		c0.19-0.52,0.41-1.02,0.67-1.5c18.85-41.61,60.78-70.63,109.36-70.63c48.59,0,90.52,29.03,109.37,70.66
		c0.25,0.46,0.46,0.95,0.64,1.45c6.41,14.67,9.97,30.86,9.97,47.87c0,66.16-53.82,119.98-119.98,119.98
		C433.39,630.95,379.57,577.13,379.57,510.97z M632.12,643.48c-35.4,35.4-82.46,54.89-132.51,54.89c-14.72,0-29.38-1.71-43.57-5.1
		c-5.9-1.4-9.55-7.33-8.14-13.22c1.4-5.9,7.33-9.54,13.22-8.14c12.52,2.98,25.47,4.49,38.48,4.49c44.19,0,85.74-17.21,116.98-48.46
		c31.25-31.25,48.46-72.79,48.46-116.98c0-27.04-6.6-53.61-19.14-77.32h-36.29c-9.42,0-17.08-7.66-17.08-17.08v-38.09
		c0-9.42,7.66-17.08,17.08-17.08h38.09c9.42,0,17.08,7.66,17.08,17.08v38.09c0,1.6-0.22,3.16-0.64,4.63
		c14.98,27.42,22.86,58.31,22.86,89.77C687.01,561.03,667.51,608.09,632.12,643.48z"/>
	<path id="XMLID_656_" class="st1" d="M418.54,455.84h30.88c2.16-9.45,4.89-18.24,8.15-26.13c1.35-3.26,2.77-6.33,4.27-9.21
		C444.21,427.87,429.19,440.24,418.54,455.84z"/>
	<path id="XMLID_655_" class="st1" d="M527.27,565.28h-55.45c7.07,27.64,18.72,43.71,27.73,43.71
		C508.55,608.99,520.2,592.91,527.27,565.28z"/>
	<path id="XMLID_654_" class="st1" d="M533.58,510.97c0-11.97-0.81-23.07-2.21-33.17h-63.66c-1.4,10.1-2.21,21.2-2.21,33.17
		c0,11.64,0.76,22.47,2.1,32.35h63.89C532.82,533.43,533.58,522.61,533.58,510.97z"/>
</g>
</svg>
